<svg width="151" height="60" viewBox="0 0 151 60" fill="none" xmlns="http://www.w3.org/2000/svg">
<g clip-path="url(#clip0_2349_881)">
<path d="M0.573242 0V4.10107H29.742V0H0.573242ZM33.8747 0V4.10107H75.4415C75.4415 4.10107 71.1956 0 65.5723 0H33.8747ZM83.5957 0V4.10107H108.743L107.25 0H83.5957ZM126.772 0L125.28 4.10107H150.199V0H126.772ZM0.573242 7.97561V12.0767H29.742V7.97561H0.573242ZM33.8747 7.98146V12.0767H80.2649C80.2649 12.0767 79.7232 8.92039 78.7781 7.98146H33.8747ZM83.5957 7.98146V12.0767H111.5L110.119 7.98146H83.5957ZM123.787 7.98146L122.405 12.0767H150.199V7.98146H123.787ZM8.95568 15.9512V20.0576H21.5879V15.9512H8.95568ZM42.2571 15.9512V20.0576H54.8893V15.9512H42.2571ZM67.1762 15.9512V20.0576H79.8084C79.8084 20.0576 80.6103 17.8888 80.6103 15.9509H67.1762V15.9512ZM91.9781 15.9512V20.0576H114.374L112.882 15.9509H91.9781V15.9512ZM121.036 15.9512L119.537 20.0579H142.044V15.9512H121.036ZM8.95568 23.9327V28.0332H21.5879V23.9327H8.95568ZM42.2571 23.9327V28.0332H74.5225C74.5225 28.0332 77.2216 25.9288 78.0815 23.9321H42.2571V23.9327ZM91.9781 23.9327V28.0332H104.61V25.7502L105.412 28.0332H128.552L129.412 25.7502V28.0332H142.044V23.9327H118.331L117.073 27.4065L115.808 23.9327H91.9781ZM8.95568 31.9077V36.0088H21.5879V31.9077H8.95568ZM42.2571 31.9077V36.0088H78.0815C77.2213 34.0185 74.5225 31.9077 74.5225 31.9077H42.2571ZM91.9781 31.9077V36.0088H104.61V31.9077H91.9781ZM106.905 31.9077L108.433 36.0088H125.783L127.235 31.9077H106.905ZM129.412 31.9077V36.0088H142.044V31.9077H129.412ZM8.95568 39.8833V43.9844H21.5879V39.8833H8.95568ZM42.2571 39.8833V43.9844H54.8893V39.8833H42.2571ZM67.1762 39.8833V43.9844H80.6103C80.6103 42.0489 79.8084 39.8833 79.8084 39.8833H67.1762ZM91.9781 39.8833V43.9844H104.61V39.8833H91.9781ZM109.773 39.8833L111.254 43.9844H122.885L124.378 39.8833H109.773ZM129.412 39.8833V43.9844H142.044V39.8833H129.412ZM0.801535 47.8592V51.9659H29.9703V47.8589H0.801535V47.8592ZM33.8747 47.8592V51.9659H78.7781C79.7232 51.0255 80.2649 47.8589 80.2649 47.8589H33.8747V47.8592ZM83.824 47.8592V51.9659H104.61V47.8589H83.824V47.8592ZM112.647 47.8592L114.169 51.9659H120.087L121.516 47.8589H112.647V47.8592ZM129.412 47.8592V51.9659H150.427V47.8589H129.412V47.8592ZM0.801535 55.8404V59.9415H29.9703V55.8404H0.801535ZM33.8747 55.8404V59.9353H65.5723C71.1956 59.9353 75.4415 55.8401 75.4415 55.8401H33.8747V55.8404ZM83.824 55.8404V59.9415H104.61V55.8404H83.824ZM115.533 55.8404L116.997 59.9295L117.248 59.9353L118.735 55.8401H115.533V55.8404ZM129.412 55.8404V59.9415H150.427V55.8404H129.412Z" fill="#1F70C1"/>
</g>
<defs>
<clipPath id="clip0_2349_881">
<rect width="149.854" height="60" fill="white" transform="translate(0.573242)"/>
</clipPath>
</defs>
</svg>
