<svg width="34" height="34" viewBox="0 0 34 34" fill="none" xmlns="http://www.w3.org/2000/svg">
<path d="M16.9564 32.0279C9.34572 30.3365 3.26074 23.1559 3.26074 15.5931V7.37572L16.9564 1.89746L30.652 7.37572V15.5931C30.652 23.1586 24.5671 30.3365 16.9564 32.0279ZM5.99987 8.74529V15.5931C6.07814 18.7597 7.19189 21.8135 9.17066 24.2869C11.1494 26.7604 13.8842 28.5173 16.9564 29.2888C20.0286 28.5173 22.7634 26.7604 24.7421 24.2869C26.7209 21.8135 27.8347 18.7597 27.9129 15.5931V8.74529L16.9564 4.63659L5.99987 8.74529Z" fill="black"/>
<path d="M16.9566 15.5929C18.8476 15.5929 20.3805 14.06 20.3805 12.169C20.3805 10.2781 18.8476 8.74512 16.9566 8.74512C15.0657 8.74512 13.5327 10.2781 13.5327 12.169C13.5327 14.06 15.0657 15.5929 16.9566 15.5929Z" fill="black"/>
<path d="M10.1089 21.0711C10.7839 22.3012 11.7737 23.3299 12.9769 24.0519C14.1802 24.7738 15.5536 25.1631 16.9567 25.1798C18.3598 25.1631 19.7333 24.7738 20.9365 24.0519C22.1397 23.3299 23.1295 22.3012 23.8045 21.0711C23.7703 18.4744 19.2275 16.9624 16.9567 16.9624C14.6736 16.9624 10.1431 18.4744 10.1089 21.0711Z" fill="black"/>
</svg>
