<svg width="24" height="24" viewBox="0 0 24 24" fill="none" xmlns="http://www.w3.org/2000/svg">
<path fill-rule="evenodd" clip-rule="evenodd" d="M4.43865 13.2173C4.15775 12.9361 3.99997 12.5548 3.99997 12.1573C3.99997 11.7598 4.15775 11.3786 4.43865 11.0973L10.0946 5.43931C10.376 5.15805 10.7576 5.00009 11.1555 5.00019C11.5534 5.00028 11.9349 5.15842 12.2161 5.43981C12.4974 5.72121 12.6554 6.10281 12.6553 6.50067C12.6552 6.89853 12.497 7.28005 12.2156 7.56131L7.61965 12.1573L12.2156 16.7533C12.489 17.0361 12.6404 17.4149 12.6372 17.8082C12.6339 18.2015 12.4764 18.5778 12.1984 18.8561C11.9204 19.1343 11.5442 19.2922 11.1509 19.2958C10.7577 19.2994 10.3787 19.1484 10.0956 18.8753L4.43765 13.2183L4.43865 13.2173Z" fill="black"/>
<path fill-rule="evenodd" clip-rule="evenodd" d="M10.9372 13.2173C10.6563 12.9361 10.4985 12.5548 10.4985 12.1573C10.4985 11.7598 10.6563 11.3786 10.9372 11.0973L16.5932 5.43931C16.8746 5.15805 17.2562 5.00009 17.654 5.00019C18.0519 5.00028 18.4334 5.15842 18.7147 5.43981C18.9959 5.72121 19.1539 6.10281 19.1538 6.50067C19.1537 6.89853 18.9956 7.28005 18.7142 7.56131L14.1182 12.1573L18.7142 16.7533C18.9876 17.0361 19.1389 17.4149 19.1357 17.8082C19.1325 18.2015 18.9749 18.5778 18.6969 18.8561C18.4189 19.1343 18.0428 19.2922 17.6495 19.2958C17.2562 19.2994 16.8772 19.1484 16.5942 18.8753L10.9362 13.2183L10.9372 13.2173Z" fill="black"/>
</svg>
