<svg width="24" height="24" viewBox="0 0 24 24" fill="none" xmlns="http://www.w3.org/2000/svg">
<path d="M24.0437 2.91172L22.3513 1.1253C21.8839 0.60537 21.063 0.60537 20.5704 1.1253L9.25403 13.0703L12.7273 16.7365L24.0437 4.79145C24.5362 4.27153 24.5362 3.40498 24.0437 2.91172V2.91172ZM6.72804 15.4033C5.72315 15.4033 4.75941 15.8247 4.04883 16.5747C3.33826 17.3248 2.93907 18.342 2.93907 19.4028C2.93907 21.1492 1.474 22.0691 0.413086 22.0691C1.57504 23.6955 3.57057 24.7354 5.46505 24.7354C6.80492 24.7354 8.08991 24.1735 9.03733 23.1735C9.98476 22.1734 10.517 20.817 10.517 19.4028C10.517 18.342 10.1178 17.3248 9.40726 16.5747C8.69668 15.8247 7.73294 15.4033 6.72804 15.4033Z" fill="black"/>
</svg>
