<svg width="24" height="24" viewBox="0 0 24 24" fill="none" xmlns="http://www.w3.org/2000/svg">
<g clip-path="url(#clip0_1547_400)">
<path d="M1 1H4.38462M4.38462 1H10.5897C11.1882 1 11.1538 1.23786 11.1538 1.23786C11.1538 1.23786 11.1538 1.35169 11.1538 2L11.1538 8.33333M4.38462 1V8.33333M1 23H4.38462M4.38462 23H10.8973C11.4957 23 11 23 11 23C11 23 11.1538 23.0194 11.1538 22.3711V8.33333M4.38462 23V8.33333M11.1538 8.33333H4.38462M4.38462 8.33333H1M1 15.6667H11.1538M13.9744 12H18.4872M18.4872 12H23M18.4872 12V16.8889M18.4872 12V7.11111" stroke="black" stroke-width="2" stroke-linecap="round" stroke-linejoin="round"/>
</g>
<defs>
<clipPath id="clip0_1547_400">
<rect width="24" height="24" fill="white"/>
</clipPath>
</defs>
</svg>
