<svg width="24" height="24" viewBox="0 0 24 24" fill="none" xmlns="http://www.w3.org/2000/svg">
<path d="M2 12.0833V3.83333C2 3.3471 2.19156 2.88079 2.53253 2.53697C2.87351 2.19315 3.33597 2 3.81818 2H14.7273C14.8467 1.99991 14.965 2.02354 15.0753 2.06954C15.1857 2.11555 15.286 2.18303 15.3705 2.26813L21.7341 8.68479C21.8185 8.76998 21.8854 8.87111 21.931 8.98239C21.9767 9.09367 22.0001 9.21292 22 9.33333V12.0833C22 12.3264 21.9042 12.5596 21.7337 12.7315C21.5632 12.9034 21.332 13 21.0909 13C20.8498 13 20.6186 12.9034 20.4481 12.7315C20.2776 12.5596 20.1818 12.3264 20.1818 12.0833V10.25H14.7273C14.4862 10.25 14.2549 10.1534 14.0844 9.98151C13.914 9.80961 13.8182 9.57645 13.8182 9.33333V3.83333H3.81818V12.0833C3.81818 12.3264 3.7224 12.5596 3.55192 12.7315C3.38143 12.9034 3.1502 13 2.90909 13C2.66799 13 2.43675 12.9034 2.26627 12.7315C2.09578 12.5596 2 12.3264 2 12.0833ZM15.6364 8.41667H18.8966L15.6364 5.12927V5.36111V8.41667Z" fill="black"/>
<path d="M6.0949 22.0762C4.8824 22.0762 3.98573 21.7604 3.4049 21.1287C2.82406 20.4971 2.53364 19.5133 2.53364 18.1774C2.53364 15.5927 3.73525 14.3003 6.13846 14.3003C6.37079 14.3003 6.61039 14.3184 6.85724 14.3547C7.1041 14.3838 7.3328 14.431 7.54336 14.4963C7.75391 14.5544 7.92816 14.6234 8.06611 14.7032C8.24762 14.8122 8.33838 14.9211 8.33838 15.03C8.33838 15.1171 8.3057 15.2333 8.24036 15.3785C8.17501 15.5164 8.09515 15.6398 8.00076 15.7488C7.91364 15.8577 7.83014 15.9121 7.75028 15.9121C7.71398 15.9121 7.63048 15.8794 7.49979 15.8141C7.37637 15.7488 7.20211 15.6834 6.97704 15.6181C6.75197 15.5527 6.46518 15.52 6.11668 15.52C5.39789 15.52 4.86425 15.7379 4.51575 16.1735C4.17451 16.6091 4.00388 17.2807 4.00388 18.1883C4.00388 19.0813 4.17451 19.7493 4.51575 20.1921C4.86425 20.635 5.39063 20.8565 6.0949 20.8565C6.45066 20.8565 6.75197 20.8202 6.99882 20.7476C7.24568 20.6677 7.44534 20.5878 7.59781 20.508C7.75754 20.4281 7.85919 20.3882 7.90275 20.3882C7.99713 20.3882 8.08789 20.4463 8.17501 20.5624C8.26214 20.6713 8.33111 20.7911 8.38194 20.9218C8.43276 21.0525 8.45817 21.1469 8.45817 21.205C8.45817 21.2921 8.4255 21.3756 8.36016 21.4555C8.29481 21.5281 8.20406 21.597 8.08789 21.6624C7.92816 21.7495 7.73576 21.8257 7.51068 21.8911C7.28561 21.9492 7.04964 21.9927 6.80279 22.0218C6.55593 22.0581 6.31997 22.0762 6.0949 22.0762ZM12.0427 22.0762C11.52 22.0762 11.0698 22.0218 10.6923 21.9129C10.322 21.804 10.0425 21.6805 9.85371 21.5426C9.6722 21.4192 9.58144 21.2957 9.58144 21.1723C9.58144 21.0779 9.61412 20.9654 9.67946 20.8347C9.75206 20.704 9.83556 20.5915 9.92995 20.4971C10.0243 20.3954 10.1006 20.3446 10.1586 20.3446C10.1877 20.3446 10.224 20.3555 10.2676 20.3773C10.3111 20.3991 10.3656 20.4281 10.4309 20.4644C10.5761 20.537 10.7649 20.6205 10.9972 20.7149C11.2368 20.8093 11.52 20.8565 11.8467 20.8565C12.05 20.8565 12.2388 20.8274 12.413 20.7694C12.5945 20.704 12.7397 20.6024 12.8486 20.4644C12.9576 20.3192 13.012 20.1377 13.012 19.9199C13.012 19.673 12.9285 19.477 12.7615 19.3318C12.6018 19.1866 12.3949 19.0595 12.1408 18.9506C11.8866 18.8417 11.6216 18.7255 11.3457 18.6021C11.1424 18.515 10.9428 18.417 10.7467 18.3081C10.558 18.1919 10.3874 18.0539 10.2349 17.8942C10.0824 17.7272 9.95899 17.5276 9.8646 17.2952C9.77748 17.0556 9.73391 16.7688 9.73391 16.4349C9.73391 15.9557 9.85008 15.56 10.0824 15.2478C10.322 14.9283 10.6342 14.6924 11.019 14.5399C11.4038 14.3802 11.8177 14.3003 12.2606 14.3003C12.4784 14.3003 12.6925 14.3184 12.9031 14.3547C13.1137 14.3838 13.3061 14.431 13.4803 14.4963C13.6546 14.5544 13.7998 14.6234 13.9159 14.7032C14.0684 14.8049 14.1446 14.9138 14.1446 15.03C14.1446 15.1098 14.1156 15.2151 14.0575 15.3458C14.0067 15.4765 13.9413 15.5927 13.8615 15.6943C13.7816 15.7959 13.7054 15.8468 13.6328 15.8468C13.5965 15.8468 13.5493 15.8322 13.4912 15.8032C13.4404 15.7742 13.3678 15.7415 13.2734 15.7052C13.1717 15.6616 13.0447 15.6217 12.8922 15.5854C12.747 15.5418 12.5655 15.52 12.3477 15.52C12.0718 15.52 11.8467 15.56 11.6725 15.6398C11.5055 15.7124 11.3857 15.8105 11.3131 15.9339C11.2405 16.0573 11.2042 16.1953 11.2042 16.3477C11.2042 16.5656 11.2622 16.7434 11.3784 16.8814C11.4946 17.0193 11.647 17.1355 11.8358 17.2299C12.0318 17.317 12.246 17.4041 12.4784 17.4913C12.7034 17.5856 12.9321 17.6909 13.1645 17.8071C13.4041 17.916 13.6219 18.0539 13.8179 18.2209C14.0212 18.3879 14.1809 18.5985 14.2971 18.8526C14.4205 19.1067 14.4822 19.4189 14.4822 19.7892C14.4822 20.1885 14.4169 20.5334 14.2862 20.8238C14.1555 21.1142 13.974 21.3538 13.7417 21.5426C13.5093 21.7241 13.248 21.8584 12.9576 21.9455C12.6671 22.0327 12.3622 22.0762 12.0427 22.0762ZM18.392 22.0218C18.2541 22.0218 18.1343 22.0073 18.0326 21.9782C17.9382 21.9492 17.8765 21.8947 17.8475 21.8149L15.4406 14.7577C15.4334 14.7214 15.4261 14.6887 15.4188 14.6597C15.4116 14.6306 15.408 14.6016 15.408 14.5726C15.408 14.4273 15.6076 14.3547 16.0069 14.3547H16.2901C16.4353 14.3547 16.5587 14.3729 16.6604 14.4092C16.762 14.4455 16.8274 14.5181 16.8564 14.627L18.392 19.2882C18.4501 19.4697 18.5009 19.6549 18.5445 19.8436C18.5953 20.0252 18.628 20.1776 18.6425 20.3011H18.6752C18.6969 20.1704 18.7332 20.0106 18.7841 19.8219C18.8349 19.6331 18.8857 19.4552 18.9365 19.2882L20.483 14.627C20.5121 14.5254 20.5774 14.4564 20.679 14.4201C20.7807 14.3765 20.9041 14.3547 21.0493 14.3547H21.278C21.6701 14.3547 21.8661 14.4273 21.8661 14.5726C21.8661 14.6234 21.8552 14.6851 21.8335 14.7577L19.4375 21.8149C19.4085 21.8947 19.3431 21.9492 19.2415 21.9782C19.1471 22.0073 19.0273 22.0218 18.8821 22.0218H18.392Z" fill="black"/>
</svg>
