<svg width="24" height="24" viewBox="0 0 24 24" fill="none" xmlns="http://www.w3.org/2000/svg">
<g clip-path="url(#clip0_1550_434)">
<path d="M9.55556 13.2222H2.22222C1.89807 13.2222 1.58719 13.351 1.35798 13.5802C1.12877 13.8094 1 14.1203 1 14.4444V21.7778C1 22.1019 1.12877 22.4128 1.35798 22.642C1.58719 22.8712 1.89807 23 2.22222 23H9.55556C9.87971 23 10.1906 22.8712 10.4198 22.642C10.649 22.4128 10.7778 22.1019 10.7778 21.7778V14.4444C10.7778 14.1203 10.649 13.8094 10.4198 13.5802C10.1906 13.351 9.87971 13.2222 9.55556 13.2222ZM8.77778 21H3L3 15.2222H8.77778V21ZM21.7778 1H14.4444C14.1203 1 13.8094 1.12877 13.5802 1.35798C13.351 1.58719 13.2222 1.89807 13.2222 2.22222V9.55556C13.2222 9.87971 13.351 10.1906 13.5802 10.4198C13.8094 10.649 14.1203 10.7778 14.4444 10.7778H21.7778C22.1019 10.7778 22.4128 10.649 22.642 10.4198C22.8712 10.1906 23 9.87971 23 9.55556V2.22222C23 1.89807 22.8712 1.58719 22.642 1.35798C22.4128 1.12877 22.1019 1 21.7778 1ZM21 8.77778H15.2222V3H21V8.77778ZM9.55556 1H2.22222C1.89807 1 1.58719 1.12877 1.35798 1.35798C1.12877 1.58719 1 1.89807 1 2.22222V9.55556C1 9.87971 1.12877 10.1906 1.35798 10.4198C1.58719 10.649 1.89807 10.7778 2.22222 10.7778H9.55556C9.87971 10.7778 10.1906 10.649 10.4198 10.4198C10.649 10.1906 10.7778 9.87971 10.7778 9.55556V2.22222C10.7778 1.89807 10.649 1.58719 10.4198 1.35798C10.1906 1.12877 9.87971 1 9.55556 1ZM8.77778 8.77778H3V3H8.77778L8.77778 8.77778Z" fill="black"/>
<path d="M14 17.8889H18.5128M18.5128 17.8889H23.0256M18.5128 17.8889V22.7778M18.5128 17.8889V13" stroke="black" stroke-width="2" stroke-linecap="round" stroke-linejoin="round"/>
</g>
<defs>
<clipPath id="clip0_1550_434">
<rect width="24" height="24" fill="white"/>
</clipPath>
</defs>
</svg>
