<svg width="24" height="24" viewBox="0 0 24 24" fill="none" xmlns="http://www.w3.org/2000/svg">
<g clip-path="url(#clip0_1559_481)">
<path d="M1 4.66667C1 5.63913 2.15893 6.57176 4.22183 7.25939C6.28473 7.94703 9.08262 8.33333 12 8.33333C14.9174 8.33333 17.7153 7.94703 19.7782 7.25939C21.8411 6.57176 23 5.63913 23 4.66667C23 3.69421 21.8411 2.76158 19.7782 2.07394C17.7153 1.38631 14.9174 1 12 1C9.08262 1 6.28473 1.38631 4.22183 2.07394C2.15893 2.76158 1 3.69421 1 4.66667Z" stroke="black" stroke-width="2" stroke-linecap="round" stroke-linejoin="round"/>
<path d="M1 4.6665V11.9998C1 12.9723 2.15893 13.9049 4.22183 14.5926C6.28473 15.2802 9.08262 15.6665 12 15.6665C14.9174 15.6665 17.7153 15.2802 19.7782 14.5926C21.8411 13.9049 23 12.9723 23 11.9998V4.6665" stroke="black" stroke-width="2" stroke-linecap="round" stroke-linejoin="round"/>
<path d="M1 12V19.3333C1 20.3058 2.15893 21.2384 4.22183 21.9261C6.28473 22.6137 9.08262 23 12 23C14.9174 23 17.7153 22.6137 19.7782 21.9261C21.8411 21.2384 23 20.3058 23 19.3333V12" stroke="black" stroke-width="2" stroke-linecap="round" stroke-linejoin="round"/>
</g>
<defs>
<clipPath id="clip0_1559_481">
<rect width="24" height="24" fill="white"/>
</clipPath>
</defs>
</svg>
