<svg width="24" height="24" viewBox="0 0 24 24" fill="none" xmlns="http://www.w3.org/2000/svg">
<g clip-path="url(#clip0_1558_476)">
<path d="M1 4.5C1 6.43317 5.4775 8 11 8C16.5225 8 21 6.43317 21 4.5C21 2.56683 16.5225 1 11 1C5.4775 1 1 2.56683 1 4.5Z" stroke="black" stroke-width="2" stroke-linecap="round" stroke-linejoin="round"/>
<path d="M1 4V11.3333C1 13.3586 5.4775 15 11 15C12.3975 15 13.7287 14.8949 14.9375 14.7054M21 11.3333V4" stroke="black" stroke-width="2" stroke-linecap="round" stroke-linejoin="round"/>
<path d="M1 11V18.2C1 20.1884 5.378 21.8 10.7778 21.8C10.9697 21.8 11.1591 21.7976 11.3473 21.794" stroke="black" stroke-width="2" stroke-linecap="round" stroke-linejoin="round"/>
<path d="M14.5 18.6H23M23 18.6L19.3333 15M23 18.6L19.3333 22.2" stroke="black" stroke-width="2" stroke-linecap="round" stroke-linejoin="round"/>
</g>
<defs>
<clipPath id="clip0_1558_476">
<rect width="24" height="24" fill="white"/>
</clipPath>
</defs>
</svg>
