<svg width="24" height="24" viewBox="0 0 24 24" fill="none" xmlns="http://www.w3.org/2000/svg">
<g clip-path="url(#clip0_1566_593)">
<path d="M20.8889 4.3C21.1836 4.3 21.4662 4.41589 21.6746 4.62218C21.8829 4.82847 22 5.10826 22 5.4C22 5.69174 21.8829 5.97153 21.6746 6.17782C21.4662 6.38411 21.1836 6.5 20.8889 6.5H19.7778L19.7744 6.5781L19.7689 20.9562C19.729 21.5112 19.4781 22.0307 19.0668 22.4099C18.6555 22.7892 18.1143 23 17.5522 23H6.44111C5.87904 23 5.33785 22.7892 4.92654 22.4099C4.51523 22.0307 4.26435 21.5112 4.22444 20.9562V6.5792C4.22276 6.55283 4.22202 6.52642 4.22222 6.5H3.11111C2.81643 6.5 2.53381 6.38411 2.32544 6.17782C2.11706 5.97153 2 5.69174 2 5.4C2 5.10826 2.11706 4.82847 2.32544 4.62218C2.53381 4.41589 2.81643 4.3 3.11111 4.3H20.8889ZM17.5522 6.5H6.44778L6.44222 20.8H17.5522V6.5ZM14.2222 1C14.5169 1 14.7995 1.11589 15.0079 1.32218C15.2163 1.52847 15.3333 1.80826 15.3333 2.1C15.3333 2.39174 15.2163 2.67153 15.0079 2.87782C14.7995 3.08411 14.5169 3.2 14.2222 3.2H9.77778C9.48309 3.2 9.20048 3.08411 8.9921 2.87782C8.78373 2.67153 8.66667 2.39174 8.66667 2.1C8.66667 1.80826 8.78373 1.52847 8.9921 1.32218C9.20048 1.11589 9.48309 1 9.77778 1H14.2222Z" fill="black"/>
</g>
<defs>
<clipPath id="clip0_1566_593">
<rect width="24" height="24" fill="white"/>
</clipPath>
</defs>
</svg>
