<svg width="24" height="24" viewBox="0 0 24 24" fill="none" xmlns="http://www.w3.org/2000/svg">
<path d="M3 4C3 4 3 17.9543 3 20" stroke="black" stroke-width="2" stroke-linecap="round" stroke-linejoin="round"/>
<path d="M21 4C21 4 21 17.9543 21 20" stroke="black" stroke-width="2" stroke-linecap="round" stroke-linejoin="round"/>
<path d="M22 4C22 4 4.55708 4 2 4" stroke="black" stroke-width="2" stroke-linecap="round" stroke-linejoin="round"/>
<path d="M22 20C22 20 4.55708 20 2 20" stroke="black" stroke-width="2" stroke-linecap="round" stroke-linejoin="round"/>
<path d="M16.595 22.5952C16.595 22.5952 14.3317 20.3319 13.9999 20.0001" stroke="black" stroke-width="2" stroke-linecap="round" stroke-linejoin="round"/>
<path d="M12 4C12 4 12 2.25571 12 2" stroke="black" stroke-width="2" stroke-linecap="round" stroke-linejoin="round"/>
<path d="M7 22.5981C7 22.5981 9.26586 20.3323 9.59803 20.0001" stroke="black" stroke-width="2" stroke-linecap="round" stroke-linejoin="round"/>
<path d="M13.875 17.25C14.6458 17.25 15.3594 17.0573 16.0156 16.6719C16.6719 16.2865 17 15.75 17 15.0625C17 14.6875 16.901 14.3646 16.7031 14.0937C16.5052 13.8229 16.2396 13.5885 15.9063 13.3906L14.9844 14.3125C15.224 14.4167 15.4115 14.5313 15.5469 14.6563C15.6823 14.7813 15.75 14.9167 15.75 15.0625C15.75 15.3021 15.5598 15.5183 15.1794 15.7112C14.799 15.9042 14.3642 16.0004 13.875 16C13.6979 16 13.5496 16.06 13.43 16.18C13.3104 16.3 13.2504 16.4483 13.25 16.625C13.2496 16.8017 13.3096 16.9502 13.43 17.0706C13.5504 17.191 13.6988 17.2508 13.875 17.25ZM7.98437 12.4687L8.92188 11.5312C8.71354 11.4479 8.54938 11.3621 8.42938 11.2737C8.30938 11.1854 8.24958 11.0942 8.25 11C8.25 10.875 8.34375 10.75 8.53125 10.625C8.71875 10.5 9.11458 10.3073 9.71875 10.0469C10.6354 9.65104 11.2448 9.29167 11.5469 8.96875C11.849 8.64583 12 8.28125 12 7.875C12 7.30208 11.7708 6.84646 11.3125 6.50812C10.8542 6.16979 10.25 6.00042 9.5 6C9.03125 6 8.61188 6.08333 8.24188 6.25C7.87188 6.41667 7.58813 6.61979 7.39062 6.85937C7.27604 6.99479 7.22917 7.14583 7.25 7.3125C7.27083 7.47917 7.34896 7.61458 7.48438 7.71875C7.61979 7.83333 7.77083 7.88021 7.9375 7.85937C8.10417 7.83854 8.24479 7.77083 8.35938 7.65625C8.50521 7.51042 8.66667 7.40625 8.84375 7.34375C9.02083 7.28125 9.23958 7.25 9.5 7.25C9.92708 7.25 10.2423 7.3125 10.4456 7.4375C10.649 7.5625 10.7504 7.70833 10.75 7.875C10.75 8.02083 10.659 8.15354 10.4769 8.27312C10.2948 8.39271 9.87542 8.60375 9.21875 8.90625C8.38542 9.27083 7.80729 9.60167 7.48438 9.89875C7.16146 10.1958 7 10.5629 7 11C7 11.3333 7.08854 11.6173 7.26562 11.8519C7.44271 12.0865 7.68229 12.2921 7.98437 12.4687Z" fill="black"/>
<path d="M16.4395 8.56062C16.2618 8.38288 16.0509 8.24189 15.8188 8.1457C15.5866 8.04951 15.3378 8 15.0865 8C14.8352 8 14.5864 8.04951 14.3543 8.1457C14.1221 8.24189 13.9112 8.38288 13.7335 8.56062L13.1837 9.11154C13.1562 9.13353 13.1311 9.15832 13.1088 9.18553L7.6508 14.6458C7.58101 14.7154 7.53337 14.8041 7.51385 14.9007L7.01004 17.4004C6.9936 17.4812 6.9974 17.5648 7.02108 17.6437C7.04477 17.7227 7.08761 17.7946 7.14579 17.853C7.20398 17.9114 7.27569 17.9545 7.35456 17.9784C7.43343 18.0024 7.51699 18.0065 7.59782 17.9903L10.1009 17.4904C10.1975 17.4708 10.2862 17.4232 10.3558 17.3534L16.4395 11.2682C16.6172 11.0905 16.7582 10.8795 16.8543 10.6473C16.9505 10.4151 17 10.1663 17 9.91493C17 9.66359 16.9505 9.41471 16.8543 9.18251C16.7582 8.95031 16.6172 8.73933 16.4395 8.56162V8.56062ZM13.4996 10.2104L14.7921 11.5032L9.75601 16.5395L8.13862 16.8635L8.4635 15.2477L13.4996 10.2104ZM15.4989 10.7963L14.2063 9.50248L14.4403 9.26852C14.5247 9.18197 14.6255 9.11304 14.7367 9.06573C14.848 9.01842 14.9675 8.99366 15.0884 8.9929C15.2093 8.99213 15.3291 9.01538 15.441 9.06128C15.5528 9.10718 15.6545 9.17482 15.74 9.2603C15.8255 9.34577 15.8932 9.44737 15.9392 9.55921C15.9852 9.67105 16.0085 9.7909 16.0078 9.91182C16.0072 10.0327 15.9825 10.1523 15.9353 10.2637C15.8881 10.375 15.8192 10.4758 15.7328 10.5603L15.4989 10.7943V10.7963Z" fill="black"/>
</svg>
