<svg width="24" height="24" viewBox="0 0 24 24" fill="none" xmlns="http://www.w3.org/2000/svg">
<path d="M9.95596 24.6874C12.2039 23.7538 11.7114 21.1798 10.5748 19.5528C9.4508 17.8857 7.89744 16.7387 6.33144 15.6317C5.21409 14.888 4.21645 13.9605 3.37625 12.8843C3.02264 12.4442 2.30278 11.6307 3.03526 11.4706C3.78038 11.3106 5.06854 12.0841 5.72524 12.3776C6.87449 12.8843 8.0111 13.4712 9.07193 14.1647L10.3475 11.8974C8.37734 10.5237 5.85153 9.31009 3.50254 8.94999C2.16386 8.7366 0.749412 9.03001 0.294768 10.5637C-0.109361 11.8841 0.534719 13.2178 1.2672 14.258C2.99738 16.6987 5.68736 17.8723 7.69537 19.9795C8.12476 20.4196 8.64255 20.9398 8.89513 21.5533C9.16034 22.1401 9.09719 22.1801 8.50363 22.1801C6.93763 22.1801 4.98013 20.8864 3.7046 20.0329L2.42907 22.3001C4.36131 23.5538 7.59434 25.5143 9.95596 24.6874V24.6874ZM23.9615 3.88201C24.2394 3.5886 24.2394 3.10847 23.9615 2.8284L22.3198 1.09462C22.1875 0.959988 22.0109 0.884766 21.8272 0.884766C21.6435 0.884766 21.467 0.959988 21.3347 1.09462L20.0465 2.45497L22.6734 5.22903L23.9615 3.88201ZM11.5346 11.444V14.218H14.1614L21.9283 6.0159L19.3014 3.24184L11.5346 11.444Z" fill="black"/>
</svg>
