<svg width="24" height="24" viewBox="0 0 24 24" fill="none" xmlns="http://www.w3.org/2000/svg">
<path d="M3 4C3 4 3 17.9543 3 20" stroke="black" stroke-width="2" stroke-linecap="round" stroke-linejoin="round"/>
<path d="M21 4C21 4 21 17.9543 21 20" stroke="black" stroke-width="2" stroke-linecap="round" stroke-linejoin="round"/>
<path d="M22 4C22 4 4.55708 4 2 4" stroke="black" stroke-width="2" stroke-linecap="round" stroke-linejoin="round"/>
<path d="M22 20C22 20 4.55708 20 2 20" stroke="black" stroke-width="2" stroke-linecap="round" stroke-linejoin="round"/>
<path d="M16.595 22.5952C16.595 22.5952 14.3317 20.3319 13.9999 20.0001" stroke="black" stroke-width="2" stroke-linecap="round" stroke-linejoin="round"/>
<path d="M12 4C12 4 12 2.25571 12 2" stroke="black" stroke-width="2" stroke-linecap="round" stroke-linejoin="round"/>
<path d="M7 22.5981C7 22.5981 9.26586 20.3323 9.59803 20.0001" stroke="black" stroke-width="2" stroke-linecap="round" stroke-linejoin="round"/>
<path d="M15.1254 11.0627C15.1254 11.9592 14.8344 12.7874 14.3441 13.4593L16.8169 15.934C17.061 16.1782 17.061 16.5747 16.8169 16.8188C16.5727 17.063 16.1762 17.063 15.9321 16.8188L13.4593 14.3441C12.7874 14.8363 11.9592 15.1254 11.0627 15.1254C8.81845 15.1254 7 13.3069 7 11.0627C7 8.81845 8.81845 7 11.0627 7C13.3069 7 15.1254 8.81845 15.1254 11.0627ZM11.0627 13.8753C11.4321 13.8753 11.7978 13.8026 12.139 13.6612C12.4803 13.5199 12.7904 13.3127 13.0515 13.0515C13.3127 12.7904 13.5199 12.4803 13.6612 12.139C13.8026 11.7978 13.8753 11.4321 13.8753 11.0627C13.8753 10.6933 13.8026 10.3276 13.6612 9.98635C13.5199 9.6451 13.3127 9.33504 13.0515 9.07386C12.7904 8.81269 12.4803 8.60551 12.139 8.46416C11.7978 8.32281 11.4321 8.25006 11.0627 8.25006C10.6933 8.25006 10.3276 8.32281 9.98635 8.46416C9.6451 8.60551 9.33504 8.81269 9.07386 9.07386C8.81269 9.33504 8.60551 9.6451 8.46416 9.98635C8.32281 10.3276 8.25006 10.6933 8.25006 11.0627C8.25006 11.4321 8.32281 11.7978 8.46416 12.139C8.60551 12.4803 8.81269 12.7904 9.07386 13.0515C9.33504 13.3127 9.6451 13.5199 9.98635 13.6612C10.3276 13.8026 10.6933 13.8753 11.0627 13.8753Z" fill="black"/>
</svg>
