<svg width="40" height="41" viewBox="0 0 40 41" fill="none" xmlns="http://www.w3.org/2000/svg">
<path opacity="0.1" fill-rule="evenodd" clip-rule="evenodd" d="M0.198242 20.8016C0.198242 9.84099 9.08354 0.955688 20.0441 0.955688C31.0047 0.955688 39.89 9.84099 39.89 20.8016C39.89 31.7621 31.0047 40.6474 20.0441 40.6474C9.08354 40.6474 0.198242 31.7621 0.198242 20.8016Z" fill="white"/>
<path fill-rule="evenodd" clip-rule="evenodd" d="M30.6289 20.787C30.6289 21.5028 30.556 22.2176 30.4129 22.9144C30.2733 23.5946 30.0666 24.2624 29.7958 24.9008C29.5312 25.5279 29.203 26.1322 28.8195 26.6958C28.4417 27.2558 28.0065 27.7812 27.5284 28.2601C27.0493 28.737 26.5221 29.171 25.9623 29.5504C25.3969 29.9312 24.7917 30.2589 24.1642 30.5248C23.5249 30.7942 22.8556 31.0006 22.1759 31.1399C21.4782 31.2834 20.7608 31.3567 20.044 31.3567C19.3266 31.3567 18.6092 31.2834 17.9125 31.1399C17.2318 31.0006 16.5625 30.7942 15.9237 30.5248C15.2962 30.2589 14.6905 29.9312 14.125 29.5504C13.5653 29.171 13.0381 28.737 12.56 28.2601C12.0814 27.7812 11.6462 27.2558 11.2679 26.6958C10.8865 26.1322 10.5577 25.5279 10.2921 24.9008C10.0212 24.2624 9.81401 23.5945 9.67394 22.9144C9.53234 22.2176 9.45996 21.5028 9.45996 20.787C9.45996 20.0706 9.5323 19.3543 9.67398 18.659C9.81405 17.9788 10.0213 17.3099 10.2921 16.6726C10.5578 16.045 10.8865 15.4402 11.2679 14.8765C11.6463 14.3161 12.0815 13.7917 12.5601 13.3122C13.0382 12.8353 13.5653 12.4024 14.1251 12.0235C14.6905 11.6411 15.2963 11.3134 15.9237 11.0471C16.5625 10.7771 17.2318 10.5702 17.9125 10.4319C18.6092 10.2894 19.3266 10.2172 20.044 10.2172C20.7608 10.2172 21.4782 10.2894 22.176 10.4319C22.8556 10.5702 23.5249 10.7771 24.1643 11.0471C24.7917 11.3134 25.397 11.6411 25.9624 12.0235C26.5221 12.4024 27.0493 12.8353 27.5284 13.3122C28.0065 13.7917 28.4417 14.3161 28.8195 14.8765C29.203 15.4402 29.5312 16.045 29.7958 16.6726C30.0666 17.3099 30.2733 17.9788 30.4129 18.659C30.556 19.3543 30.6289 20.0706 30.6289 20.787ZM16.1872 12.6227C13.6665 13.8113 11.7852 16.1307 11.1986 18.9259C11.4369 18.9279 15.2036 18.9754 19.5436 17.824C17.9791 15.0484 16.3076 12.7833 16.1872 12.6227ZM20.2925 19.2139C15.6383 20.6053 11.1722 20.5051 11.012 20.499C11.0094 20.596 11.0048 20.6899 11.0048 20.7869C11.0048 23.1058 11.8808 25.2197 13.3207 26.8181C13.3176 26.8134 15.7913 22.4312 20.6693 20.8561C20.7871 20.8169 20.907 20.7818 21.0259 20.7477C20.799 20.2348 20.5514 19.7207 20.2925 19.2139ZM26.0135 14.0126C24.4221 12.6113 22.3325 11.7614 20.0439 11.7614C19.3095 11.7614 18.5967 11.8502 17.914 12.0143C18.0494 12.196 19.7473 14.4451 21.2931 17.2795C24.7038 16.0027 25.9913 14.0456 26.0135 14.0126ZM21.6421 22.2434C21.6219 22.25 21.6018 22.2558 21.5821 22.263C16.2489 24.1196 14.5072 27.8611 14.4884 27.9019C16.0229 29.0936 17.9476 29.8125 20.044 29.8125C21.2958 29.8125 22.4881 29.558 23.573 29.0972C23.4391 28.3086 22.914 25.5444 21.6421 22.2434ZM25.0951 28.2725C27.1247 26.9048 28.5662 24.7331 28.9683 22.2175C28.7822 22.1577 26.2533 21.3582 23.3357 21.8253C24.5213 25.0789 25.0031 27.7285 25.0951 28.2725ZM21.9889 18.6245C22.1987 19.0549 22.4018 19.493 22.5894 19.9333C22.6561 20.0912 22.7212 20.2461 22.7848 20.4009C25.89 20.0107 28.9492 20.6672 29.08 20.694C29.0593 18.5543 28.2928 16.5905 27.0245 15.0531C27.0075 15.0773 25.5577 17.169 21.9889 18.6245Z" fill="white"/>
</svg>

