<svg width="24" height="24" viewBox="0 0 24 24" fill="none" xmlns="http://www.w3.org/2000/svg">
<path d="M21.7669 2.23336C21.3761 1.84234 20.912 1.53216 20.4013 1.32054C19.8906 1.10892 19.3432 1 18.7903 1C18.2375 1 17.6901 1.10892 17.1794 1.32054C16.6687 1.53216 16.2046 1.84234 15.8138 2.23336L14.6042 3.44539C14.5437 3.49376 14.4884 3.54831 14.4393 3.60816L2.43176 15.6207C2.27823 15.7739 2.17341 15.969 2.13047 16.1816L1.02208 21.6808C0.985925 21.8586 0.99427 22.0425 1.04638 22.2162C1.09849 22.3899 1.19274 22.5481 1.32074 22.6765C1.44875 22.805 1.60653 22.8998 1.78004 22.9525C1.95354 23.0052 2.13739 23.0142 2.3152 22.9786L7.82194 21.8788C8.03449 21.8359 8.2296 21.731 8.38273 21.5774L21.7669 8.19012C22.1579 7.79916 22.468 7.335 22.6795 6.82416C22.8911 6.31331 23 5.76578 23 5.21284C23 4.6599 22.8911 4.11237 22.6795 3.60152C22.468 3.09068 22.1579 2.62652 21.7669 2.23556V2.23336ZM15.2991 5.86285L18.1427 8.70705L7.06323 19.7869L3.50496 20.4996L4.21969 16.9449L15.2991 5.86285ZM19.6975 7.15187L16.854 4.30547L17.3686 3.79074C17.5543 3.60033 17.776 3.44869 18.0208 3.34461C18.2655 3.24052 18.5285 3.18606 18.7945 3.18438C19.0605 3.18269 19.3241 3.23383 19.5702 3.33481C19.8163 3.43579 20.0398 3.58461 20.228 3.77265C20.4161 3.9607 20.5651 4.18421 20.6662 4.43026C20.7674 4.6763 20.8187 4.93998 20.8172 5.20601C20.8158 5.47204 20.7615 5.73513 20.6576 5.98004C20.5538 6.22495 20.4023 6.4468 20.2121 6.63274L19.6975 7.14747V7.15187Z" fill="black"/>
</svg>
