<svg width="24" height="24" viewBox="0 0 24 24" fill="none" xmlns="http://www.w3.org/2000/svg">
<path d="M5.95 18.05L14.2 14.2L18.05 5.95L9.8 9.8L5.95 18.05ZM12 13.1C11.6883 13.1 11.4273 12.9944 11.2168 12.7832C11.0063 12.572 10.9007 12.3109 10.9 12C10.9 11.6883 11.0056 11.4273 11.2168 11.2168C11.428 11.0063 11.6891 10.9007 12 10.9C12.3117 10.9 12.5731 11.0056 12.7843 11.2168C12.9955 11.428 13.1007 11.6891 13.1 12C13.1 12.3117 12.9944 12.5731 12.7832 12.7843C12.572 12.9955 12.3109 13.1007 12 13.1ZM12 23C10.4783 23 9.04833 22.7111 7.71 22.1332C6.37167 21.5553 5.2075 20.7718 4.2175 19.7825C3.2275 18.7925 2.44393 17.6283 1.8668 16.29C1.28967 14.9517 1.00073 13.5217 1 12C1 10.4783 1.28893 9.04833 1.8668 7.71C2.44467 6.37167 3.22823 5.2075 4.2175 4.2175C5.2075 3.2275 6.37167 2.44393 7.71 1.8668C9.04833 1.28967 10.4783 1.00073 12 1C13.5217 1 14.9517 1.28893 16.29 1.8668C17.6283 2.44467 18.7925 3.22823 19.7825 4.2175C20.7725 5.2075 21.5564 6.37167 22.1343 7.71C22.7122 9.04833 23.0007 10.4783 23 12C23 13.5217 22.7111 14.9517 22.1332 16.29C21.5553 17.6283 20.7718 18.7925 19.7825 19.7825C18.7925 20.7725 17.6283 21.5564 16.29 22.1343C14.9517 22.7122 13.5217 23.0007 12 23ZM12 20.8C14.4567 20.8 16.5375 19.9475 18.2425 18.2425C19.9475 16.5375 20.8 14.4567 20.8 12C20.8 9.54333 19.9475 7.4625 18.2425 5.7575C16.5375 4.0525 14.4567 3.2 12 3.2C9.54333 3.2 7.4625 4.0525 5.7575 5.7575C4.0525 7.4625 3.2 9.54333 3.2 12C3.2 14.4567 4.0525 16.5375 5.7575 18.2425C7.4625 19.9475 9.54333 20.8 12 20.8Z" fill="black"/>
</svg>
