<svg width="24" height="24" viewBox="0 0 24 24" fill="none" xmlns="http://www.w3.org/2000/svg">
<g clip-path="url(#clip0_1562_500)">
<path d="M3.5 10C4.16304 10 4.79893 10.2634 5.26777 10.7322C5.73661 11.2011 6 11.837 6 12.5C6 13.163 5.73661 13.7989 5.26777 14.2678C4.79893 14.7366 4.16304 15 3.5 15C2.83696 15 2.20107 14.7366 1.73223 14.2678C1.26339 13.7989 1 13.163 1 12.5C1 11.837 1.26339 11.2011 1.73223 10.7322C2.20107 10.2634 2.83696 10 3.5 10ZM12.25 10C12.913 10 13.5489 10.2634 14.0178 10.7322C14.4866 11.2011 14.75 11.837 14.75 12.5C14.75 13.163 14.4866 13.7989 14.0178 14.2678C13.5489 14.7366 12.913 15 12.25 15C11.587 15 10.9511 14.7366 10.4822 14.2678C10.0134 13.7989 9.75 13.163 9.75 12.5C9.75 11.837 10.0134 11.2011 10.4822 10.7322C10.9511 10.2634 11.587 10 12.25 10ZM21 10C21.663 10 22.2989 10.2634 22.7678 10.7322C23.2366 11.2011 23.5 11.837 23.5 12.5C23.5 13.163 23.2366 13.7989 22.7678 14.2678C22.2989 14.7366 21.663 15 21 15C20.337 15 19.7011 14.7366 19.2322 14.2678C18.7634 13.7989 18.5 13.163 18.5 12.5C18.5 11.837 18.7634 11.2011 19.2322 10.7322C19.7011 10.2634 20.337 10 21 10Z" fill="black"/>
</g>
<defs>
<clipPath id="clip0_1562_500">
<rect width="24" height="24" fill="white"/>
</clipPath>
</defs>
</svg>
