<svg width="24" height="24" viewBox="0 0 24 24" fill="none" xmlns="http://www.w3.org/2000/svg">
<g clip-path="url(#clip0_1560_496)">
<path d="M23 3.14926C23 2.39702 23 2.0209 22.8487 1.73343C22.7174 1.48079 22.5076 1.27528 22.2493 1.14642C21.955 1 21.57 1 20.8 1H3.2C2.43 1 2.045 1 1.75075 1.14642C1.49204 1.2752 1.2817 1.48069 1.14988 1.73343C1 2.0209 1 2.39702 1 3.14926V4.13926C1 4.46837 1 4.63225 1.0385 4.78673C1.07217 4.92425 1.12785 5.05572 1.2035 5.17628C1.28737 5.31061 1.407 5.42747 1.6435 5.65986L8.60513 12.4596C8.843 12.692 8.96263 12.8088 9.0465 12.9432C9.12213 13.0641 9.1785 13.1957 9.2115 13.3327C9.25 13.4859 9.25 13.6484 9.25 13.9694V20.3581C9.25 21.5093 9.25 22.0856 9.4975 22.4321C9.60488 22.582 9.74247 22.7089 9.90183 22.805C10.0612 22.9011 10.239 22.9644 10.4242 22.9909C10.8519 23.0527 11.3799 22.7962 12.4331 22.2803L13.5331 21.743C13.9759 21.5281 14.1959 21.4206 14.3567 21.2595C14.4995 21.1171 14.608 20.9455 14.6744 20.7571C14.75 20.5448 14.75 20.303 14.75 19.8208V13.9802C14.75 13.6511 14.75 13.4872 14.7885 13.3327C14.8221 13.1952 14.8778 13.0637 14.9535 12.9432C15.036 12.8088 15.1556 12.6933 15.3894 12.465L15.3949 12.4596L22.3565 5.65986C22.593 5.42747 22.7112 5.31061 22.7965 5.17628C22.8723 5.05578 22.928 4.92429 22.9615 4.78673C23 4.63493 23 4.47105 23 4.15001V3.14926Z" stroke="black" stroke-width="2" stroke-linecap="round" stroke-linejoin="round"/>
</g>
<defs>
<clipPath id="clip0_1560_496">
<rect width="24" height="24" fill="white"/>
</clipPath>
</defs>
</svg>
