<svg width="24" height="24" viewBox="0 0 24 24" fill="none" xmlns="http://www.w3.org/2000/svg">
<g clip-path="url(#clip0_2250_89)">
<path fill-rule="evenodd" clip-rule="evenodd" d="M19.5614 10.7827C19.8423 11.0639 20 11.4452 20 11.8427C20 12.2402 19.8423 12.6214 19.5614 12.9027L13.9054 18.5607C13.624 18.8419 13.2424 18.9999 12.8445 18.9998C12.4466 18.9997 12.0651 18.8416 11.7839 18.5602C11.5026 18.2788 11.3446 17.8972 11.3447 17.4993C11.3448 17.1015 11.503 16.7199 11.7844 16.4387L16.3804 11.8427L11.7844 7.24668C11.511 6.96391 11.3596 6.58508 11.3628 6.19178C11.3661 5.79848 11.5236 5.42219 11.8016 5.14394C12.0796 4.8657 12.4558 4.70777 12.8491 4.70416C13.2423 4.70056 13.6213 4.85158 13.9044 5.12468L19.5624 10.7817L19.5614 10.7827Z" fill="black"/>
<path fill-rule="evenodd" clip-rule="evenodd" d="M13.0628 10.7827C13.3437 11.0639 13.5015 11.4452 13.5015 11.8427C13.5015 12.2402 13.3437 12.6214 13.0628 12.9027L7.40682 18.5607C7.12542 18.8419 6.74382 18.9999 6.34596 18.9998C5.94811 18.9997 5.56658 18.8416 5.28532 18.5602C5.00406 18.2788 4.8461 17.8972 4.84619 17.4993C4.84629 17.1015 5.00442 16.7199 5.28582 16.4387L9.88182 11.8427L5.28582 7.24668C5.01245 6.96391 4.86107 6.58508 4.8643 6.19178C4.86753 5.79848 5.02511 5.42219 5.30309 5.14394C5.58107 4.8657 5.95722 4.70777 6.35052 4.70416C6.74381 4.70056 7.12279 4.85158 7.40582 5.12468L13.0638 10.7817L13.0628 10.7827Z" fill="black"/>
</g>
<defs>
<clipPath id="clip0_2250_89">
<rect width="24" height="24" fill="white"/>
</clipPath>
</defs>
</svg>
