<svg width="24" height="24" viewBox="0 0 24 24" fill="none" xmlns="http://www.w3.org/2000/svg">
<path d="M22.8107 11.8234L12.8828 1.90062L12.2173 1.23516C12.0657 1.08454 11.8606 1 11.6469 1C11.4332 1 11.2281 1.08454 11.0765 1.23516L0.483142 11.8234C0.327777 11.9781 0.204989 12.1625 0.122027 12.3655C0.0390647 12.5685 -0.0023911 12.786 0.000106498 13.0053C0.0103838 13.9097 0.763199 14.6317 1.66761 14.6317H2.75957V23H20.5342V14.6317H21.6493C22.0887 14.6317 22.5023 14.4595 22.8132 14.1486C22.9663 13.996 23.0876 13.8146 23.1701 13.6148C23.2526 13.415 23.2946 13.2009 23.2937 12.9847C23.2937 12.5479 23.1216 12.1343 22.8107 11.8234ZM13.0857 21.1501H10.2081V15.9086H13.0857V21.1501ZM18.6843 12.7818V21.1501H14.7301V15.292C14.7301 14.7242 14.2702 14.2643 13.7024 14.2643H9.59144C9.02361 14.2643 8.5637 14.7242 8.5637 15.292V21.1501H4.60949V12.7818H2.14293L11.6495 3.28292L12.243 3.87644L21.1534 12.7818H18.6843Z" fill="black"/>
</svg>
