<svg width="41" height="41" viewBox="0 0 41 41" fill="none" xmlns="http://www.w3.org/2000/svg">
<path opacity="0.1" fill-rule="evenodd" clip-rule="evenodd" d="M0.660645 20.8016C0.660645 9.84099 9.54595 0.955688 20.5065 0.955688C31.4671 0.955688 40.3524 9.84099 40.3524 20.8016C40.3524 31.7621 31.4671 40.6474 20.5065 40.6474C9.54595 40.6474 0.660645 31.7621 0.660645 20.8016Z" fill="white"/>
<path fill-rule="evenodd" clip-rule="evenodd" d="M20.5078 10.2172C17.6332 10.2172 17.2725 10.2297 16.1434 10.2811C15.0166 10.3327 14.2475 10.5111 13.5745 10.7729C12.8783 11.0432 12.2878 11.4048 11.6995 11.9934C11.1107 12.5817 10.7491 13.1722 10.4778 13.8682C10.2154 14.5414 10.0368 15.3108 9.98609 16.4371C9.93559 17.5662 9.92236 17.9271 9.92236 20.8017C9.92236 23.6763 9.93515 24.036 9.98631 25.165C10.0381 26.2918 10.2165 27.061 10.4781 27.734C10.7486 28.4301 11.1103 29.0207 11.6988 29.609C12.2869 30.1978 12.8774 30.5603 13.5732 30.8306C14.2466 31.0924 15.016 31.2708 16.1426 31.3224C17.2716 31.3737 17.6321 31.3863 20.5065 31.3863C23.3813 31.3863 23.741 31.3737 24.87 31.3224C25.9968 31.2708 26.7668 31.0924 27.4403 30.8306C28.1362 30.5603 28.7259 30.1978 29.314 29.609C29.9027 29.0207 30.2644 28.4301 30.5356 27.7342C30.7958 27.061 30.9744 26.2916 31.0274 25.1652C31.0781 24.0362 31.0913 23.6763 31.0913 20.8017C31.0913 17.9271 31.0781 17.5664 31.0274 16.4374C30.9744 15.3105 30.7958 14.5414 30.5356 13.8684C30.2644 13.1722 29.9027 12.5817 29.314 11.9934C28.7252 11.4046 28.1364 11.043 27.4396 10.7729C26.7649 10.5111 25.9953 10.3327 24.8684 10.2811C23.7394 10.2297 23.38 10.2172 20.5045 10.2172H20.5078ZM19.5583 12.1246C19.8401 12.1241 20.1545 12.1246 20.5078 12.1246C23.3339 12.1246 23.6688 12.1347 24.7848 12.1854C25.8168 12.2326 26.3769 12.4051 26.75 12.5499C27.244 12.7418 27.5961 12.9711 27.9664 13.3416C28.3368 13.712 28.5662 14.0648 28.7585 14.5588C28.9033 14.9315 29.076 15.4916 29.123 16.5236C29.1737 17.6393 29.1847 17.9745 29.1847 20.7993C29.1847 23.624 29.1737 23.9592 29.123 25.075C29.0758 26.107 28.9033 26.6671 28.7585 27.0398C28.5666 27.5337 28.3368 27.8854 27.9664 28.2557C27.5959 28.6261 27.2442 28.8555 26.75 29.0473C26.3774 29.1929 25.8168 29.3649 24.7848 29.412C23.669 29.4628 23.3339 29.4738 20.5078 29.4738C17.6815 29.4738 17.3465 29.4628 16.2307 29.412C15.1987 29.3644 14.6386 29.192 14.2653 29.0471C13.7714 28.8553 13.4185 28.6259 13.0481 28.2555C12.6776 27.885 12.4483 27.5331 12.256 27.0389C12.1111 26.6662 11.9385 26.1061 11.8915 25.0741C11.8408 23.9583 11.8306 23.6232 11.8306 20.7966C11.8306 17.9701 11.8408 17.6367 11.8915 16.5209C11.9387 15.4889 12.1111 14.9288 12.256 14.5557C12.4478 14.0618 12.6776 13.7089 13.0481 13.3385C13.4185 12.968 13.7714 12.7387 14.2653 12.5464C14.6384 12.4009 15.1987 12.2289 16.2307 12.1815C17.2072 12.1374 17.5856 12.1241 19.5583 12.1219V12.1246ZM26.1577 13.882C25.4565 13.882 24.8876 14.4503 24.8876 15.1518C24.8876 15.853 25.4565 16.4219 26.1577 16.4219C26.859 16.4219 27.4279 15.853 27.4279 15.1518C27.4279 14.4505 26.859 13.882 26.1577 13.882ZM20.5078 15.3661C17.506 15.3661 15.0722 17.7999 15.0722 20.8017C15.0722 23.8035 17.506 26.2362 20.5078 26.2362C23.5097 26.2362 25.9426 23.8035 25.9426 20.8017C25.9426 17.7999 23.5097 15.3661 20.5078 15.3661ZM20.5078 17.2735C22.4562 17.2735 24.036 18.853 24.036 20.8017C24.036 22.7502 22.4562 24.3299 20.5078 24.3299C18.5591 24.3299 16.9796 22.7502 16.9796 20.8017C16.9796 18.853 18.5591 17.2735 20.5078 17.2735Z" fill="white"/>
</svg>
