<svg width="24" height="24" viewBox="0 0 24 24" fill="none" xmlns="http://www.w3.org/2000/svg">
<path fill-rule="evenodd" clip-rule="evenodd" d="M7.94011 13.0601C7.65921 12.7788 7.50143 12.3976 7.50143 12.0001C7.50143 11.6026 7.65921 11.2213 7.94011 10.9401L13.5961 5.28209C13.8775 5.00083 14.2591 4.84287 14.657 4.84296C15.0548 4.84305 15.4363 5.00119 15.7176 5.28259C15.9989 5.56398 16.1568 5.94558 16.1567 6.34344C16.1566 6.7413 15.9985 7.12283 15.7171 7.40409L11.1211 12.0001L15.7171 16.5961C15.9905 16.8789 16.1419 17.2577 16.1386 17.651C16.1354 18.0443 15.9778 18.4206 15.6998 18.6988C15.4219 18.9771 15.0457 19.135 14.6524 19.1386C14.2591 19.1422 13.8801 18.9912 13.5971 18.7181L7.93911 13.0611L7.94011 13.0601Z" fill="black"/>
</svg>
