<svg width="24" height="24" viewBox="0 0 24 24" fill="none" xmlns="http://www.w3.org/2000/svg">
<path d="M12.3536 19.4248L10.3893 21.389C9.87859 21.8998 9.27226 22.3049 8.60495 22.5813C7.93765 22.8577 7.22243 23 6.50014 23C5.77785 23 5.06264 22.8577 4.39533 22.5813C3.72802 22.3049 3.12169 21.8998 2.61095 21.389C2.10022 20.8783 1.69508 20.272 1.41867 19.6047C1.14227 18.9374 1 18.2221 1 17.4999C1 16.7776 1.14227 16.0624 1.41867 15.395C1.69508 14.7277 2.10022 14.1214 2.61096 13.6107L6.53943 9.6822C7.05014 9.17143 7.65647 8.76626 8.32378 8.48984C8.99109 8.21341 9.70631 8.07113 10.4286 8.07113C11.1509 8.07113 11.8661 8.21341 12.5334 8.48984C13.2008 8.76627 13.8071 9.17143 14.3178 9.6822C14.5259 9.90575 14.6392 10.2013 14.6339 10.5066C14.6286 10.8119 14.5052 11.1034 14.2895 11.3196C14.0733 11.5353 13.7819 11.6587 13.4765 11.664C13.1712 11.6692 12.8757 11.5559 12.6521 11.3479C12.3605 11.0553 12.0139 10.8232 11.6324 10.6648C11.2508 10.5064 10.8417 10.4248 10.4286 10.4248C10.0155 10.4248 9.60642 10.5064 9.22487 10.6648C8.84331 10.8232 8.49677 11.0553 8.2051 11.3479L4.27663 15.2763C3.71561 15.8718 3.40863 16.6624 3.42081 17.4805C3.43299 18.2985 3.76338 19.0796 4.34188 19.6581C4.92039 20.2366 5.7015 20.567 6.51954 20.5792C7.33758 20.5914 8.12818 20.2844 8.72366 19.7234L10.6879 17.7591C10.9114 17.5511 11.2069 17.4378 11.5123 17.443C11.8176 17.4483 12.109 17.5718 12.3253 17.7874C12.5409 18.0037 12.6644 18.2951 12.6697 18.6004C12.6749 18.9058 12.5616 19.2013 12.3536 19.4248ZM19.7234 4.27663C19.4317 3.98405 19.0852 3.75191 18.7036 3.59351C18.3221 3.43512 17.913 3.35358 17.4999 3.35358C17.0867 3.35358 16.6777 3.43512 16.2961 3.59351C15.9146 3.75191 15.568 3.98405 15.2763 4.27663L13.3121 6.24086C13.0886 6.44893 12.7931 6.56223 12.4877 6.55695C12.1824 6.55168 11.891 6.42824 11.6747 6.21258C11.4591 5.99635 11.3356 5.70493 11.3303 5.39959C11.3251 5.09424 11.4384 4.79874 11.6464 4.57519L13.6107 2.61095C14.1214 2.10022 14.7277 1.69508 15.395 1.41867C16.0624 1.14226 16.7776 0.999999 17.4999 1C18.9586 1 20.3576 1.57948 21.389 2.61095C22.4205 3.64243 23 5.04141 23 6.50014C23 7.95887 22.4205 9.35785 21.389 10.3893L17.4606 14.3178C16.9499 14.8286 16.3435 15.2337 15.6762 15.5102C15.0089 15.7866 14.2937 15.9289 13.5714 15.9289C12.8491 15.9289 12.1339 15.7866 11.4666 15.5102C10.7992 15.2337 10.1929 14.8286 9.6822 14.3178C9.47414 14.0942 9.36084 13.7987 9.36611 13.4934C9.37139 13.1881 9.49483 12.8966 9.71049 12.6804C9.92672 12.4647 10.2181 12.3413 10.5235 12.336C10.8288 12.3308 11.1243 12.4441 11.3479 12.6521C11.6395 12.9447 11.9861 13.1768 12.3676 13.3352C12.7492 13.4936 13.1583 13.5752 13.5714 13.5752C13.9845 13.5752 14.3936 13.4936 14.7751 13.3352C15.1567 13.1768 15.5032 12.9447 15.7949 12.6521L19.7234 8.72366C20.016 8.43199 20.2481 8.08544 20.4065 7.70389C20.5649 7.32233 20.6464 6.91327 20.6464 6.50014C20.6464 6.08701 20.5649 5.67795 20.4065 5.29639C20.2481 4.91484 20.016 4.56829 19.7234 4.27663Z" fill="black"/>
</svg>
