<svg width="24" height="24" viewBox="0 0 24 24" fill="none" xmlns="http://www.w3.org/2000/svg">
<g clip-path="url(#clip0_2560_501)">
<path d="M12.7758 14.8127C16 14.8127 18.622 12.6824 18.622 10.0627C18.622 7.44312 16 5.31274 12.7758 5.31274C9.55169 5.31274 6.92969 7.44312 6.92969 10.0627C6.92969 12.6824 9.55169 14.8127 12.7758 14.8127ZM12.7758 7.68774C14.3879 7.68774 15.6989 8.75293 15.6989 10.0627C15.6989 11.3726 14.3879 12.4377 12.7758 12.4377C11.1638 12.4377 9.85276 11.3726 9.85276 10.0627C9.85276 8.75293 11.1638 7.68774 12.7758 7.68774Z" fill="black"/>
<path d="M11.6206 24.0919C11.868 24.2354 12.1644 24.3126 12.4683 24.3126C12.7723 24.3126 13.0686 24.2354 13.316 24.0919C13.7603 23.8366 24.203 17.7102 24.1606 10.0627C24.1606 4.82468 18.9152 0.562744 12.4683 0.562744C6.02147 0.562744 0.776008 4.82468 0.776008 10.0568C0.733623 17.7102 11.1763 23.8366 11.6206 24.0919ZM12.4683 2.93774C17.3045 2.93774 21.2375 6.13331 21.2375 10.0687C21.2682 15.3388 14.8243 20.071 12.4683 21.6231C10.1138 20.0698 3.66839 15.3364 3.69908 10.0627C3.69908 6.13331 7.63208 2.93774 12.4683 2.93774Z" fill="black"/>
</g>
<defs>
<clipPath id="clip0_2560_501">
<rect width="24" height="24" fill="white" transform="translate(0.775879 0.437744)"/>
</clipPath>
</defs>
</svg>