<svg width="24" height="24" viewBox="0 0 24 24" fill="none" xmlns="http://www.w3.org/2000/svg">
<path d="M6 6.86667C6 5.31073 6.63214 3.81852 7.75736 2.71831C8.88258 1.61809 10.4087 1 12 1C13.5913 1 15.1174 1.61809 16.2426 2.71831C17.3679 3.81852 18 5.31073 18 6.86667V9.8H18.375C19.824 9.8 21 10.9499 21 12.3667V20.4333C21 21.1141 20.7234 21.7669 20.2312 22.2482C19.7389 22.7296 19.0712 23 18.375 23H5.625C4.92881 23 4.26113 22.7296 3.76884 22.2482C3.27656 21.7669 3 21.1141 3 20.4333V12.3667C3 10.9499 4.176 9.8 5.625 9.8H6V6.86667ZM18.375 12H5.625C5.52554 12 5.43016 12.0386 5.35984 12.1074C5.28951 12.1762 5.25 12.2694 5.25 12.3667V20.4333C5.25 20.6357 5.418 20.8 5.625 20.8H18.375C18.4745 20.8 18.5698 20.7614 18.6402 20.6926C18.7105 20.6238 18.75 20.5306 18.75 20.4333V12.3667C18.75 12.2694 18.7105 12.1762 18.6402 12.1074C18.5698 12.0386 18.4745 12 18.375 12ZM15.75 9.8V6.86667C15.75 5.89421 15.3549 4.96158 14.6517 4.27394C13.9484 3.58631 12.9946 3.2 12 3.2C11.0054 3.2 10.0516 3.58631 9.34835 4.27394C8.64509 4.96158 8.25 5.89421 8.25 6.86667V9.8H15.75Z" fill="black"/>
</svg>
