<svg width="34" height="28" viewBox="0 0 34 28" fill="none" xmlns="http://www.w3.org/2000/svg">
<g clip-path="url(#clip0_2349_932)">
<path d="M31.4742 1.49805H1.21555C0.571828 1.49805 0.0517578 2.01812 0.0517578 2.66184V25.9377C0.0517578 26.5814 0.571828 27.1015 1.21555 27.1015H31.4742C32.1179 27.1015 32.638 26.5814 32.638 25.9377V2.66184C32.638 2.01812 32.1179 1.49805 31.4742 1.49805ZM30.0194 5.52768V24.483H2.67029V5.52768L1.66652 4.74576L3.0958 2.90915L4.65238 4.12022H28.041L29.5976 2.90915L31.0268 4.74576L30.0194 5.52768ZM28.041 4.11658L16.3449 13.2087L4.64874 4.11658L3.09217 2.90551L1.66288 4.74212L2.66666 5.52404L15.0901 15.1835C15.4474 15.4611 15.887 15.6118 16.3394 15.6118C16.7918 15.6118 17.2314 15.4611 17.5887 15.1835L30.0194 5.52768L31.0232 4.74576L29.5939 2.90915L28.041 4.11658Z" fill="#0096B5"/>
</g>
<defs>
<clipPath id="clip0_2349_932">
<rect width="33.5172" height="27.3103" fill="white" transform="translate(0.0517578 0.644531)"/>
</clipPath>
</defs>
</svg>
