<svg width="24" height="24" viewBox="0 0 24 24" fill="none" xmlns="http://www.w3.org/2000/svg">
<path d="M15.5 13.75C15.5 12.888 15.8424 12.0614 16.4519 11.4519C17.0614 10.8424 17.888 10.5 18.75 10.5C19.612 10.5 20.4386 10.8424 21.0481 11.4519C21.6576 12.0614 22 12.888 22 13.75C22 14.612 21.6576 15.4386 21.0481 16.0481C20.4386 16.6576 19.612 17 18.75 17C17.888 17 17.0614 16.6576 16.4519 16.0481C15.8424 15.4386 15.5 14.612 15.5 13.75ZM3 19.75C3 18.888 3.34241 18.0614 3.9519 17.4519C4.5614 16.8424 5.38805 16.5 6.25 16.5C7.11195 16.5 7.9386 16.8424 8.5481 17.4519C9.15759 18.0614 9.5 18.888 9.5 19.75C9.5 20.612 9.15759 21.4386 8.5481 22.0481C7.9386 22.6576 7.11195 23 6.25 23C5.38805 23 4.5614 22.6576 3.9519 22.0481C3.34241 21.4386 3 20.612 3 19.75ZM3 5.25C3 4.38805 3.34241 3.5614 3.9519 2.9519C4.5614 2.34241 5.38805 2 6.25 2C7.11195 2 7.9386 2.34241 8.5481 2.9519C9.15759 3.5614 9.5 4.38805 9.5 5.25C9.5 6.11195 9.15759 6.9386 8.5481 7.5481C7.9386 8.15759 7.11195 8.5 6.25 8.5C5.38805 8.5 4.5614 8.15759 3.9519 7.5481C3.34241 6.9386 3 6.11195 3 5.25ZM6.25 7C6.71426 6.99987 7.15946 6.81531 7.48764 6.48694C7.81583 6.15856 8.00013 5.71326 8 5.249C7.99987 4.78474 7.81531 4.33954 7.48694 4.01136C7.15856 3.68317 6.71326 3.49887 6.249 3.499C6.01912 3.49907 5.79151 3.54441 5.57915 3.63244C5.3668 3.72047 5.17386 3.84947 5.01136 4.01206C4.68317 4.34044 4.49887 4.78574 4.499 5.25C4.49913 5.71426 4.68369 6.15946 5.01206 6.48764C5.34044 6.81583 5.78574 7.00013 6.25 7ZM6.25 21.5C6.47988 21.4999 6.70749 21.4546 6.91985 21.3666C7.1322 21.2785 7.32514 21.1495 7.48764 20.9869C7.65015 20.8243 7.77903 20.6313 7.86694 20.4189C7.95485 20.2065 8.00007 19.9789 8 19.749C7.99993 19.5191 7.95459 19.2915 7.86656 19.0792C7.77853 18.8668 7.64953 18.6739 7.48694 18.5114C7.32434 18.3489 7.13133 18.22 6.91893 18.1321C6.70652 18.0441 6.47888 17.9989 6.249 17.999C5.78474 17.9991 5.33954 18.1837 5.01136 18.5121C4.68317 18.8404 4.49887 19.2857 4.499 19.75C4.49913 20.2143 4.68369 20.6595 5.01206 20.9876C5.34044 21.3158 5.78574 21.5001 6.25 21.5ZM18.75 15.5C19.2143 15.4999 19.6595 15.3153 19.9876 14.9869C20.3158 14.6586 20.5001 14.2133 20.5 13.749C20.4999 13.2847 20.3153 12.8395 19.9869 12.5114C19.6586 12.1832 19.2133 11.9989 18.749 11.999C18.5191 11.9991 18.2915 12.0444 18.0792 12.1324C17.8668 12.2205 17.6739 12.3495 17.5114 12.5121C17.3489 12.6747 17.22 12.8677 17.1321 13.0801C17.0441 13.2925 16.9989 13.5201 16.999 13.75C16.9991 13.9799 17.0444 14.2075 17.1324 14.4198C17.2205 14.6322 17.3495 14.8251 17.5121 14.9876C17.6747 15.1501 17.8677 15.279 18.0801 15.3669C18.2925 15.4549 18.5201 15.5001 18.75 15.5Z" fill="black"/>
<path d="M7 7.75C7 10.65 9.35 13 12.25 13H16.75V14.5H12.25C10.4598 14.5 8.7429 13.7888 7.47703 12.523C6.21116 11.2571 5.5 9.54021 5.5 7.75H7Z" fill="black"/>
<path d="M6.25 17.25C6.05109 17.25 5.86032 17.171 5.71967 17.0303C5.57902 16.8897 5.5 16.6989 5.5 16.5V8.5C5.5 8.30109 5.57902 8.11032 5.71967 7.96967C5.86032 7.82902 6.05109 7.75 6.25 7.75C6.44891 7.75 6.63968 7.82902 6.78033 7.96967C6.92098 8.11032 7 8.30109 7 8.5V16.5C7 16.6989 6.92098 16.8897 6.78033 17.0303C6.63968 17.171 6.44891 17.25 6.25 17.25Z" fill="black"/>
</svg>
