<svg width="24" height="24" viewBox="0 0 24 24" fill="none" xmlns="http://www.w3.org/2000/svg">
<path d="M12.0818 5.7126C10.7999 5.71256 9.56725 6.22125 8.63944 7.13316C7.71163 8.04507 7.15988 9.29022 7.09863 10.6103C7.08865 10.8307 6.99666 11.0386 6.8418 11.1908C6.68695 11.343 6.48114 11.4278 6.26719 11.4276H5.9845C5.54775 11.4276 5.11528 11.5163 4.71177 11.6886C4.30827 11.8609 3.94164 12.1135 3.63281 12.4319C3.32398 12.7503 3.07901 13.1283 2.91187 13.5443C2.74474 13.9603 2.65871 14.4062 2.65871 14.8565C2.65871 15.3068 2.74474 15.7527 2.91187 16.1687C3.07901 16.5848 3.32398 16.9628 3.63281 17.2812C3.94164 17.5996 4.30827 17.8522 4.71177 18.0245C5.11528 18.1968 5.54775 18.2855 5.9845 18.2855H9.88564C10.9733 18.2857 10.9733 20.0002 9.88564 20H5.9845C4.70249 19.9989 3.47011 19.489 2.54303 18.576C1.61595 17.6631 1.06535 16.4172 1.00545 15.0968C0.945557 13.7765 1.38097 12.4831 2.22135 11.4849C3.06174 10.4867 4.24258 9.86041 5.51889 9.73593C5.77688 8.13343 6.57813 6.67733 7.77997 5.62693C8.9818 4.57653 10.5062 4 12.0818 4C13.6573 4 15.1817 4.57653 16.3836 5.62693C17.5854 6.67733 18.3867 8.13343 18.6446 9.73593C19.3037 9.79962 19.9439 9.99791 20.5278 10.3192C21.1118 10.6406 21.6279 11.0785 22.0461 11.6075C22.4643 12.1365 23.1678 13.1423 22.9636 13.4006C22.7594 13.659 22.6135 13.7138 22.0592 13.7138C21.5049 13.7138 21.1423 13.3164 21.1423 13.2975C21.1423 13.2975 20.4393 12.2619 19.9163 11.9319C19.3934 11.6019 18.7921 11.4273 18.179 11.4276H17.8952C17.6815 11.4275 17.4759 11.3426 17.3213 11.1904C17.1667 11.0382 17.0749 10.8305 17.0649 10.6103C17.0037 9.29022 16.4519 8.04507 15.5241 7.13316C14.5963 6.22125 13.3636 5.71256 12.0818 5.7126Z" fill="black"/>
<path d="M13 19.2L15.6667 22L21 16" stroke="black" stroke-width="1.5" stroke-linecap="round" stroke-linejoin="round"/>
</svg>
