<svg width="24" height="24" viewBox="0 0 24 24" fill="none" xmlns="http://www.w3.org/2000/svg">
<path d="M20.7491 18.2857C20.415 18.2873 20.0856 18.3679 19.7855 18.5214L16.5609 15.1429H14.0001C14.0001 15.1429 13.5001 15.1632 13.5001 15.9286C13.5001 16.6939 14.0001 16.7143 14.0001 16.7143H15.9393L18.7251 19.6332C18.5785 19.9477 18.5013 20.2928 18.4994 20.6429C18.4994 21.1091 18.6313 21.5648 18.8785 21.9524C19.1257 22.34 19.4771 22.6422 19.8882 22.8206C20.2992 22.999 20.7516 23.0457 21.188 22.9547C21.6244 22.8638 22.0252 22.6393 22.3398 22.3096C22.6545 21.98 22.8687 21.56 22.9555 21.1027C23.0423 20.6455 22.9978 20.1715 22.8275 19.7408C22.6572 19.3101 22.3689 18.942 21.9989 18.683C21.629 18.424 21.194 18.2857 20.7491 18.2857ZM20.7491 21.4286C20.6008 21.4286 20.4558 21.3825 20.3325 21.2962C20.2091 21.2098 20.113 21.0871 20.0563 20.9435C19.9995 20.8 19.9847 20.642 20.0136 20.4896C20.0425 20.3372 20.1139 20.1972 20.2188 20.0873C20.3237 19.9774 20.4573 19.9026 20.6028 19.8722C20.7482 19.8419 20.899 19.8575 21.036 19.917C21.1731 19.9764 21.2902 20.0771 21.3726 20.2063C21.455 20.3355 21.499 20.4875 21.499 20.6429C21.499 20.8512 21.42 21.0511 21.2793 21.1984C21.1387 21.3458 20.948 21.4286 20.7491 21.4286ZM20.7491 9.64286C20.2853 9.6443 19.8333 9.79613 19.4552 10.0775C19.0771 10.3589 18.7914 10.756 18.6374 11.2143H14.0001C14.0001 11.2143 13.5 11.2143 13.5001 12C13.5001 12.7857 14.0001 12.7857 14.0001 12.7857H18.6374C18.7755 13.1921 19.0176 13.5508 19.3372 13.8228C19.6568 14.0947 20.0415 14.2694 20.4495 14.3277C20.8574 14.386 21.2727 14.3257 21.6502 14.1534C22.0276 13.9811 22.3526 13.7034 22.5896 13.3507C22.8265 12.998 22.9664 12.5838 22.994 12.1534C23.0215 11.723 22.9356 11.293 22.7456 10.9103C22.5557 10.5276 22.269 10.2069 21.9169 9.98342C21.5647 9.7599 21.1608 9.64209 20.7491 9.64286ZM20.7491 12.7857C20.6008 12.7857 20.4558 12.7396 20.3325 12.6533C20.2091 12.567 20.113 12.4443 20.0563 12.3007C19.9995 12.1571 19.9847 11.9991 20.0136 11.8467C20.0425 11.6943 20.1139 11.5543 20.2188 11.4444C20.3237 11.3345 20.4573 11.2597 20.6028 11.2294C20.7482 11.1991 20.899 11.2146 21.036 11.2741C21.1731 11.3336 21.2902 11.4343 21.3726 11.5635C21.455 11.6927 21.499 11.8446 21.499 12C21.499 12.2084 21.42 12.4082 21.2793 12.5556C21.1387 12.7029 20.948 12.7857 20.7491 12.7857ZM20.7491 1C20.1526 1.00063 19.5807 1.24917 19.159 1.69108C18.7372 2.133 18.5 2.73218 18.4994 3.35714C18.502 3.73354 18.5915 4.10369 18.7604 4.43593L15.9468 7.28572H14.0001C14.0001 7.28572 13.4727 7.28572 13.5001 8.07143C13.5274 8.85714 14.0001 8.85714 14.0001 8.85714H16.5527L19.8522 5.51629C20.1587 5.65633 20.4912 5.72299 20.8253 5.71143C21.1595 5.69987 21.4871 5.61037 21.7841 5.44945C22.0811 5.28853 22.3401 5.06024 22.5423 4.78119C22.7445 4.50215 22.8848 4.17937 22.9529 3.83637C23.021 3.49336 23.0153 3.13876 22.9361 2.79838C22.8569 2.45799 22.7063 2.14039 22.4952 1.86869C22.2841 1.59699 22.0178 1.37803 21.7157 1.22776C21.4137 1.07749 21.0834 0.99968 20.7491 1ZM20.7491 4.14286C20.6008 4.14286 20.4558 4.09678 20.3325 4.01044C20.2091 3.92411 20.113 3.80139 20.0563 3.65782C19.9995 3.51425 19.9847 3.35627 20.0136 3.20386C20.0425 3.05144 20.1139 2.91144 20.2188 2.80156C20.3237 2.69168 20.4573 2.61684 20.6028 2.58653C20.7482 2.55621 20.899 2.57177 21.036 2.63124C21.1731 2.69071 21.2902 2.79141 21.3726 2.92062C21.455 3.04983 21.499 3.20174 21.499 3.35714C21.499 3.56553 21.42 3.76538 21.2793 3.91273C21.1387 4.06008 20.948 4.14286 20.7491 4.14286Z" fill="black"/>
<path d="M13.4444 4.5H15C15 4.5 15.5 4.5 15.5 3.75C15.5 3 15 3 15 3H13.4444C13.0012 3.00143 12.5635 3.09472 12.1609 3.27355C11.7583 3.45238 11.4003 3.71258 11.1111 4.0365C10.8219 3.71258 10.4639 3.45238 10.0613 3.27355C9.65876 3.09472 9.22102 3.00143 8.77778 3H8C6.14412 3.00199 4.36483 3.71378 3.05253 4.97922C1.74022 6.24466 1.00206 7.9604 1 9.75V14.25C1.00206 16.0396 1.74022 17.7553 3.05253 19.0208C4.36483 20.2862 6.14412 20.998 8 21H8.77778C9.22102 20.9986 9.65876 20.9053 10.0613 20.7264C10.4639 20.5476 10.8219 20.2874 11.1111 19.9635C11.4003 20.2874 11.7583 20.5476 12.1609 20.7264C12.5635 20.9053 13.0012 20.9986 13.4444 21H15C15 21 15.5 21 15.5 20.25C15.5 19.5 15 19.5 15 19.5H13.4444C13.032 19.4996 12.6366 19.3414 12.345 19.0602C12.0533 18.779 11.8893 18.3977 11.8889 18V6C11.8893 5.6023 12.0533 5.221 12.345 4.93978C12.6366 4.65856 13.032 4.5004 13.4444 4.5ZM8.77778 19.5H8C6.69212 19.4977 5.42873 19.0419 4.44056 18.2157C3.4524 17.3895 2.80542 16.2481 2.61778 15H4.11111V13.5H2.55556V10.5H4.88889C5.50754 10.4994 6.10067 10.2622 6.53812 9.84033C6.97557 9.4185 7.2216 8.84655 7.22222 8.25V6.75H5.66667V8.25C5.66667 8.44891 5.58472 8.63968 5.43886 8.78033C5.293 8.92098 5.09517 9 4.88889 9H2.61778C2.80542 7.75188 3.4524 6.61049 4.44056 5.7843C5.42873 4.95811 6.69212 4.50226 8 4.5H8.77778C9.19021 4.5004 9.58563 4.65856 9.87727 4.93978C10.1689 5.221 10.3329 5.6023 10.3333 6V9H8.77778V10.5H10.3333V13.5H8.77778C8.15913 13.5006 7.566 13.7378 7.12854 14.1597C6.69109 14.5815 6.44506 15.1534 6.44444 15.75V17.25H8V15.75C8 15.5511 8.08194 15.3603 8.22781 15.2197C8.37367 15.079 8.5715 15 8.77778 15H10.3333V18C10.3329 18.3977 10.1689 18.779 9.87727 19.0602C9.58563 19.3414 9.19021 19.4996 8.77778 19.5Z" fill="black"/>
</svg>
