<svg width="24" height="24" viewBox="0 0 24 24" fill="none" xmlns="http://www.w3.org/2000/svg">
<path d="M8.3339 13.7968C9.14682 13.7966 9.93675 14.0616 10.5795 14.5502C11.2222 15.0388 11.6813 15.7233 11.8845 16.496H22.0818C22.3108 16.4956 22.5317 16.5794 22.701 16.7308C22.8702 16.8823 22.9756 17.0905 22.9962 17.3144C23.0169 17.5383 22.9515 17.7617 22.8128 17.9407C22.6741 18.1196 22.4721 18.241 22.2468 18.2811L22.0818 18.2955L11.8845 18.2973C11.682 19.0706 11.2232 19.7559 10.5804 20.2452C9.9376 20.7344 9.1473 21 8.3339 21C7.5205 21 6.73019 20.7344 6.0874 20.2452C5.4446 19.7559 4.98582 19.0706 4.78328 18.2973L1.91822 18.2955C1.68918 18.2959 1.46829 18.2121 1.29904 18.0606C1.12979 17.9091 1.02445 17.7009 1.00375 17.477C0.983057 17.2531 1.04851 17.0297 1.18723 16.8508C1.32595 16.6719 1.52787 16.5504 1.75324 16.5104L1.91822 16.496H4.78328C4.98651 15.7233 5.44558 15.0388 6.08831 14.5502C6.73104 14.0616 7.52098 13.7966 8.3339 13.7968ZM8.3339 15.5963C7.84774 15.5963 7.3815 15.7858 7.03773 16.1233C6.69397 16.4608 6.50084 16.9185 6.50084 17.3957C6.50084 17.873 6.69397 18.3307 7.03773 18.6681C7.3815 19.0056 7.84774 19.1952 8.3339 19.1952C8.82005 19.1952 9.2863 19.0056 9.63006 18.6681C9.97382 18.3307 10.1669 17.873 10.1669 17.3957C10.1669 16.9185 9.97382 16.4608 9.63006 16.1233C9.2863 15.7858 8.82005 15.5963 8.3339 15.5963ZM15.6661 3C16.479 2.9998 17.269 3.26484 17.9117 3.75345C18.5544 4.24205 19.0135 4.92651 19.2167 5.6992H22.0818C22.3108 5.69878 22.5317 5.78257 22.701 5.93404C22.8702 6.08552 22.9756 6.29372 22.9962 6.51763C23.0169 6.74155 22.9515 6.96496 22.8128 7.14387C22.6741 7.32277 22.4721 7.44421 22.2468 7.48427L22.0818 7.49866L19.2167 7.50046C19.0142 8.2738 18.5554 8.95906 17.9126 9.44836C17.2698 9.93766 16.4795 10.2032 15.6661 10.2032C14.8527 10.2032 14.0624 9.93766 13.4196 9.44836C12.7768 8.95906 12.318 8.2738 12.1155 7.50046L1.91822 7.49866C1.68918 7.49908 1.46829 7.4153 1.29904 7.26382C1.12979 7.11234 1.02445 6.90414 1.00375 6.68023C0.983057 6.45631 1.04851 6.2329 1.18723 6.054C1.32595 5.87509 1.52787 5.75365 1.75324 5.71359L1.91822 5.6992H12.1155C12.3187 4.92651 12.7778 4.24205 13.4205 3.75345C14.0633 3.26484 14.8532 2.9998 15.6661 3ZM15.6661 4.79947C15.1799 4.79947 14.7137 4.98905 14.3699 5.32652C14.0262 5.66398 13.8331 6.12168 13.8331 6.59893C13.8331 7.07618 14.0262 7.53388 14.3699 7.87134C14.7137 8.20881 15.1799 8.3984 15.6661 8.3984C16.1523 8.3984 16.6185 8.20881 16.9623 7.87134C17.306 7.53388 17.4992 7.07618 17.4992 6.59893C17.4992 6.12168 17.306 5.66398 16.9623 5.32652C16.6185 4.98905 16.1523 4.79947 15.6661 4.79947Z" fill="black"/>
</svg>
