<svg width="24" height="24" viewBox="0 0 24 24" fill="none" xmlns="http://www.w3.org/2000/svg">
<path d="M2 12.0833V3.83333C2 3.3471 2.19156 2.88079 2.53253 2.53697C2.87351 2.19315 3.33597 2 3.81818 2H14.7273C14.8467 1.99991 14.965 2.02354 15.0753 2.06954C15.1857 2.11555 15.286 2.18303 15.3705 2.26813L21.7341 8.68479C21.8185 8.76998 21.8854 8.87111 21.931 8.98239C21.9767 9.09367 22.0001 9.21292 22 9.33333V12.0833C22 12.3264 21.9042 12.5596 21.7337 12.7315C21.5632 12.9034 21.332 13 21.0909 13C20.8498 13 20.6186 12.9034 20.4481 12.7315C20.2776 12.5596 20.1818 12.3264 20.1818 12.0833V10.25H14.7273C14.4862 10.25 14.2549 10.1534 14.0844 9.98151C13.914 9.80961 13.8182 9.57645 13.8182 9.33333V3.83333H3.81818V12.0833C3.81818 12.3264 3.7224 12.5596 3.55192 12.7315C3.38143 12.9034 3.1502 13 2.90909 13C2.66799 13 2.43675 12.9034 2.26627 12.7315C2.09578 12.5596 2 12.3264 2 12.0833ZM15.6364 8.41667H18.8966L15.6364 5.12927V5.36111V8.41667Z" fill="black"/>
<path d="M3.39401 22.0218C3.0092 22.0218 2.8168 21.9165 2.8168 21.706V14.7795C2.8168 14.5108 2.94749 14.3765 3.20887 14.3765H5.47413C5.70646 14.3765 5.96784 14.4056 6.25826 14.4637C6.55593 14.5145 6.83546 14.6197 7.09684 14.7795C7.36547 14.9319 7.58329 15.1607 7.75028 15.4656C7.91727 15.7705 8.00076 16.1735 8.00076 16.6745C8.00076 17.0883 7.93542 17.4368 7.80473 17.72C7.6813 17.9959 7.51794 18.2209 7.31465 18.3952C7.11862 18.5622 6.90807 18.6929 6.68299 18.7872C6.45792 18.8744 6.24736 18.9361 6.05133 18.9724C5.8553 19.0014 5.6992 19.016 5.58303 19.016H4.24348V21.706C4.24348 21.9165 4.05108 22.0218 3.66627 22.0218H3.39401ZM4.24348 17.7853H5.46324C5.56488 17.7853 5.67742 17.7708 5.80085 17.7417C5.93154 17.7127 6.05133 17.6582 6.16024 17.5784C6.26915 17.4985 6.3599 17.386 6.43251 17.2408C6.50511 17.0956 6.54141 16.9068 6.54141 16.6745C6.54141 16.3768 6.4797 16.1517 6.35627 15.9992C6.23284 15.8468 6.084 15.7415 5.90975 15.6834C5.74276 15.6253 5.57577 15.5963 5.40878 15.5963H4.24348V17.7853ZM10.1932 22.0218C9.80839 22.0218 9.61599 21.9165 9.61599 21.706V14.6706C9.61599 14.46 9.80839 14.3547 10.1932 14.3547H10.4655C10.8575 14.3547 11.0536 14.46 11.0536 14.6706V17.7309H11.0971L13.2535 14.5399C13.3043 14.4673 13.3842 14.4201 13.4931 14.3983C13.6092 14.3693 13.7399 14.3547 13.8851 14.3547H14.2663C14.6148 14.3547 14.7891 14.4056 14.7891 14.5072C14.7891 14.5726 14.76 14.6488 14.7019 14.7359L12.3822 18.014L15.0831 21.6515C15.1412 21.7314 15.1702 21.8003 15.1702 21.8584C15.1702 21.9673 14.9815 22.0218 14.6039 22.0218H14.1465C14.0013 22.0218 13.8706 22.0109 13.7544 21.9891C13.6455 21.9673 13.562 21.9165 13.504 21.8366L11.0971 18.4605L11.0536 18.4714V21.706C11.0536 21.9165 10.8575 22.0218 10.4655 22.0218H10.1932ZM16.8819 22C16.6133 22 16.479 21.8657 16.479 21.597V14.6706C16.479 14.46 16.6714 14.3547 17.0562 14.3547H17.3285C17.7133 14.3547 17.9057 14.46 17.9057 14.6706V20.7802H20.4868C20.6755 20.7802 20.7699 20.9363 20.7699 21.2485V21.5317C20.7699 21.8439 20.6755 22 20.4868 22H16.8819Z" fill="black"/>
</svg>
