<svg width="24" height="24" viewBox="0 0 24 24" fill="none" xmlns="http://www.w3.org/2000/svg">
<path d="M2 2C2 2 19.4429 2 22 2" stroke="black" stroke-width="2" stroke-linecap="round" stroke-linejoin="round"/>
<path d="M22 22C22 22 22 4.55708 22 2" stroke="black" stroke-width="2" stroke-linecap="round" stroke-linejoin="round"/>
<path d="M2 2C2 2 2 19.4429 2 22" stroke="black" stroke-width="2" stroke-linecap="round" stroke-linejoin="round"/>
<path d="M2 22C2 22 19.4429 22 22 22" stroke="black" stroke-width="2" stroke-linecap="round" stroke-linejoin="round"/>
<path d="M8.75 7C8.55109 7 8.36029 7.08319 8.21966 7.23128C8.07903 7.37931 8 7.58009 8 7.78947C8 7.99886 8.07903 8.1997 8.21966 8.34773C8.36029 8.49582 8.55109 8.57895 8.75 8.57895H16.25C16.4489 8.57895 16.6397 8.49582 16.7803 8.34773C16.921 8.1997 17 7.99886 17 7.78947C17 7.58009 16.921 7.37931 16.7803 7.23128C16.6397 7.08319 16.4489 7 16.25 7H8.75ZM7 12C7 11.7906 7.07903 11.5898 7.21966 11.4418C7.36029 11.2937 7.55109 11.2105 7.75 11.2105H14.25C14.4489 11.2105 14.6397 11.2937 14.7803 11.4418C14.921 11.5898 15 11.7906 15 12C15 12.2094 14.921 12.4102 14.7803 12.5583C14.6397 12.7063 14.4489 12.7895 14.25 12.7895H7.75C7.55109 12.7895 7.36029 12.7063 7.21966 12.5583C7.07903 12.4102 7 12.2094 7 12ZM9.75 15.4211C9.55109 15.4211 9.36029 15.5042 9.21966 15.6523C9.07903 15.8004 9 16.0011 9 16.2105C9 16.4199 9.07903 16.6208 9.21966 16.7688C9.36029 16.9169 9.55109 17 9.75 17H16.25C16.4489 17 16.6397 16.9169 16.7803 16.7688C16.921 16.6208 17 16.4199 17 16.2105C17 16.0011 16.921 15.8004 16.7803 15.6523C16.6397 15.5042 16.4489 15.4211 16.25 15.4211H9.75Z" fill="black"/>
</svg>
