<svg width="24" height="24" viewBox="0 0 24 24" fill="none" xmlns="http://www.w3.org/2000/svg">
<g clip-path="url(#clip0_1564_532)">
<path d="M2 2C2 2 19.4429 2 22 2" stroke="black" stroke-width="2" stroke-linecap="round" stroke-linejoin="round"/>
<path d="M22 11.5C22 11.5 22 4.55708 22 2" stroke="black" stroke-width="2" stroke-linecap="round" stroke-linejoin="round"/>
<path d="M2 2C2 2 2 19.4429 2 22" stroke="black" stroke-width="2" stroke-linecap="round" stroke-linejoin="round"/>
<path d="M2 22C2 22 8.6853 22 10.5 22" stroke="black" stroke-width="2" stroke-linecap="round" stroke-linejoin="round"/>
<path d="M19.6446 22.5374L18.8411 23.341C18.6322 23.5499 18.3841 23.7156 18.1111 23.8287C17.8381 23.9418 17.5455 24 17.2501 24C16.9546 24 16.662 23.9418 16.389 23.8287C16.116 23.7156 15.868 23.5499 15.659 23.341C15.4501 23.132 15.2844 22.884 15.1713 22.611C15.0582 22.338 15 22.0454 15 21.7499C15 21.4545 15.0582 21.1619 15.1713 20.8889C15.2844 20.6159 15.4501 20.3678 15.659 20.1589L17.2661 18.5518C17.4751 18.3429 17.7231 18.1771 17.9961 18.064C18.2691 17.9509 18.5617 17.8927 18.8572 17.8927C19.1526 17.8927 19.4452 17.9509 19.7182 18.064C19.9912 18.1771 20.2393 18.3429 20.4482 18.5518C20.5333 18.6433 20.5797 18.7641 20.5775 18.8891C20.5753 19.014 20.5248 19.1332 20.4366 19.2216C20.3482 19.3099 20.2289 19.3604 20.104 19.3625C19.9791 19.3647 19.8582 19.3183 19.7668 19.2332C19.6475 19.1135 19.5057 19.0186 19.3496 18.9538C19.1935 18.889 19.0262 18.8556 18.8572 18.8556C18.6882 18.8556 18.5208 18.889 18.3647 18.9538C18.2086 19.0186 18.0669 19.1135 17.9475 19.2332L16.3404 20.8403C16.1109 21.0839 15.9853 21.4074 15.9903 21.742C15.9953 22.0767 16.1305 22.3962 16.3671 22.6329C16.6038 22.8695 16.9233 23.0047 17.258 23.0097C17.5926 23.0147 17.9161 22.8891 18.1597 22.6596L18.9632 21.856C19.0547 21.7709 19.1756 21.7245 19.3005 21.7267C19.4254 21.7289 19.5446 21.7794 19.6331 21.8676C19.7213 21.956 19.7718 22.0753 19.7739 22.2002C19.7761 22.3251 19.7298 22.446 19.6446 22.5374ZM22.6596 16.3404C22.5402 16.2207 22.3985 16.1258 22.2424 16.061C22.0863 15.9962 21.9189 15.9628 21.7499 15.9628C21.5809 15.9628 21.4136 15.9962 21.2575 16.061C21.1014 16.1258 20.9596 16.2207 20.8403 16.3404L20.0368 17.144C19.9453 17.2291 19.8244 17.2755 19.6995 17.2733C19.5746 17.2711 19.4554 17.2206 19.3669 17.1324C19.2787 17.044 19.2282 16.9247 19.2261 16.7998C19.2239 16.6749 19.2702 16.554 19.3554 16.4626L20.1589 15.659C20.3678 15.4501 20.6159 15.2844 20.8889 15.1713C21.1619 15.0582 21.4545 15 21.7499 15C22.3467 15 22.919 15.2371 23.341 15.659C23.7629 16.081 24 16.6533 24 17.2501C24 17.8468 23.7629 18.4191 23.341 18.8411L21.7339 20.4482C21.5249 20.6571 21.2769 20.8229 21.0039 20.936C20.7309 21.0491 20.4383 21.1073 20.1428 21.1073C19.8474 21.1073 19.5548 21.0491 19.2818 20.936C19.0088 20.8229 18.7607 20.6571 18.5518 20.4482C18.4667 20.3567 18.4203 20.2359 18.4225 20.1109C18.4247 19.986 18.4752 19.8668 18.5634 19.7783C18.6518 19.6901 18.7711 19.6396 18.896 19.6375C19.0209 19.6353 19.1418 19.6817 19.2332 19.7668C19.3525 19.8865 19.4943 19.9814 19.6504 20.0462C19.8065 20.111 19.9738 20.1444 20.1428 20.1444C20.3118 20.1444 20.4792 20.111 20.6353 20.0462C20.7914 19.9814 20.9331 19.8865 21.0525 19.7668L22.6596 18.1597C22.7793 18.0404 22.8742 17.8986 22.939 17.7425C23.0038 17.5864 23.0372 17.4191 23.0372 17.2501C23.0372 17.0811 23.0038 16.9137 22.939 16.7576C22.8742 16.6015 22.7793 16.4598 22.6596 16.3404Z" fill="black"/>
<path d="M8.75 7C8.55109 7 8.36029 7.08319 8.21966 7.23128C8.07903 7.37931 8 7.58009 8 7.78947C8 7.99886 8.07903 8.1997 8.21966 8.34773C8.36029 8.49582 8.55109 8.57895 8.75 8.57895H16.25C16.4489 8.57895 16.6397 8.49582 16.7803 8.34773C16.921 8.1997 17 7.99886 17 7.78947C17 7.58009 16.921 7.37931 16.7803 7.23128C16.6397 7.08319 16.4489 7 16.25 7H8.75ZM7 12C7 11.7906 7.07903 11.5898 7.21966 11.4418C7.36029 11.2937 7.55109 11.2105 7.75 11.2105H14.25C14.4489 11.2105 14.6397 11.2937 14.7803 11.4418C14.921 11.5898 15 11.7906 15 12C15 12.2094 14.921 12.4102 14.7803 12.5583C14.6397 12.7063 14.4489 12.7895 14.25 12.7895H7.75C7.55109 12.7895 7.36029 12.7063 7.21966 12.5583C7.07903 12.4102 7 12.2094 7 12ZM9.75 15.4211C9.55109 15.4211 9.36029 15.5042 9.21966 15.6523C9.07903 15.8004 9 16.0011 9 16.2105C9 16.4199 9.07903 16.6208 9.21966 16.7688C9.36029 16.9169 9.55109 17 9.75 17H15.25C15.4489 17 15.6397 16.9169 15.7803 16.7688C15.921 16.6208 16 16.4199 16 16.2105C16 16.0011 15.921 15.8004 15.7803 15.6523C15.6397 15.5042 15.4489 15.4211 15.25 15.4211H9.75Z" fill="black"/>
</g>
<defs>
<clipPath id="clip0_1564_532">
<rect width="24" height="24" fill="white"/>
</clipPath>
</defs>
</svg>
