<svg width="24" height="24" viewBox="0 0 24 24" fill="none" xmlns="http://www.w3.org/2000/svg">
<g clip-path="url(#clip0_1569_614)">
<path d="M7.28571 23V18.2857C7.28571 17.8689 7.45128 17.4692 7.74598 17.1745C8.04068 16.8798 8.44037 16.7143 8.85714 16.7143H15.1429C15.5596 16.7143 15.9593 16.8798 16.254 17.1745C16.5487 17.4692 16.7143 17.8689 16.7143 18.2857V23M21.4286 23H2.57143C2.15466 23 1.75496 22.8344 1.46026 22.5397C1.16556 22.245 1 21.8453 1 21.4286V2.57143C1 2.15466 1.16556 1.75496 1.46026 1.46026C1.75496 1.16556 2.15466 1 2.57143 1H16.0637C16.4804 1.00009 16.8801 1.16571 17.1747 1.46043L22.5396 6.82529C22.8343 7.11992 22.9999 7.51955 23 7.93629V21.4286C23 21.8453 22.8344 22.245 22.5397 22.5397C22.245 22.8344 21.8453 23 21.4286 23Z" stroke="black" stroke-width="2"/>
</g>
<defs>
<clipPath id="clip0_1569_614">
<rect width="24" height="24" fill="white"/>
</clipPath>
</defs>
</svg>
