<svg width="24" height="24" viewBox="0 0 24 24" fill="none" xmlns="http://www.w3.org/2000/svg">
<path d="M12 14C13.1046 14 14 13.1046 14 12C14 10.8954 13.1046 10 12 10C10.8954 10 10 10.8954 10 12C10 13.1046 10.8954 14 12 14Z" stroke="black" stroke-width="2"/>
<path d="M4.23595 5.09654L4.67709 4.36333C4.5039 4.26752 4.3019 4.23097 4.1042 4.25966C3.9065 4.28835 3.72482 4.38059 3.58895 4.52125L4.23595 5.09654ZM1.88439 9.00399L1.04093 8.75358C0.981928 8.93682 0.989605 9.13385 1.0627 9.31237C1.1358 9.49088 1.26998 9.64029 1.44325 9.73608L1.88439 9.00399ZM1.88204 14.9949L1.4409 14.2617C1.2676 14.3577 1.13349 14.5074 1.06059 14.6861C0.9877 14.8649 0.980351 15.062 1.03976 15.2453L1.88204 14.9949ZM4.23478 18.9024L3.58777 19.4776C3.72365 19.6183 3.90532 19.7105 4.10302 19.7392C4.30072 19.7679 4.50272 19.7314 4.67592 19.6356L4.23478 18.9024ZM9.64608 21.8972H8.76381C8.76381 22.2921 9.04966 22.6338 9.45081 22.7218L9.64608 21.8972ZM14.3527 21.8995L14.5492 22.7252C14.7442 22.6825 14.9183 22.5775 15.0429 22.4275C15.1675 22.2775 15.2352 22.0913 15.235 21.8995H14.3539H14.3527ZM19.7652 18.9035L19.3241 19.6367C19.4973 19.7325 19.6993 19.7691 19.897 19.7404C20.0947 19.7117 20.2764 19.6194 20.4122 19.4788L19.7652 18.9035ZM22.1156 14.9938L22.9591 15.2442C23.0181 15.0609 23.0104 14.8639 22.9373 14.6854C22.8642 14.5069 22.73 14.3575 22.5567 14.2617L22.1156 14.9938ZM22.118 9.00287L22.5591 9.73608C22.7324 9.64007 22.8665 9.4904 22.9394 9.31166C23.0123 9.13292 23.0196 8.93572 22.9602 8.75245L22.118 9.00287ZM19.7652 5.09428L20.4122 4.52012C20.2764 4.37946 20.0947 4.28722 19.897 4.25853C19.6993 4.22984 19.4973 4.26639 19.3241 4.3622L19.7652 5.09541V5.09428ZM14.3539 2.10165H15.2362C15.2362 1.91005 15.1683 1.72413 15.0437 1.57434C14.9191 1.42454 14.7452 1.31973 14.5504 1.27707L14.3539 2.10165ZM9.64844 2.09939L9.45198 1.27368C9.25699 1.31639 9.08291 1.42136 8.9583 1.57139C8.83369 1.72142 8.76594 1.9076 8.76616 2.09939H9.64844ZM2.72785 9.25442C3.156 7.91988 3.89221 6.69498 4.88178 5.6707L3.58777 4.52012C2.4184 5.73046 1.54831 7.17779 1.04211 8.7547L2.72785 9.25442ZM3.59601 16.6531C3.23268 16.0507 2.94069 15.4113 2.72549 14.7467L1.03976 15.2465C1.29386 16.0317 1.63872 16.7873 2.0679 17.4991L3.59601 16.6531ZM4.88296 18.3293C4.39018 17.8183 3.95852 17.2561 3.59601 16.6531L2.0679 17.4991C2.49603 18.2112 3.00582 18.8741 3.58777 19.4776L4.88296 18.3293ZM14.1575 21.076C12.738 21.3858 11.264 21.3851 9.84489 21.0738L9.45198 22.723C11.1296 23.0912 12.8722 23.0924 14.5504 22.7263L14.1575 21.076ZM21.2745 14.7456C20.8463 16.0801 20.1101 17.305 19.1206 18.3293L20.4146 19.4799C21.5841 18.2692 22.453 16.8215 22.9591 15.2442L21.2745 14.7456ZM20.4063 7.34694C20.7769 7.96396 21.0651 8.60242 21.2769 9.25329L22.9614 8.75358C22.7077 7.96834 22.3632 7.21276 21.9345 6.50092L20.4052 7.34694H20.4063ZM19.1182 5.6707C19.6005 6.17041 20.0334 6.73104 20.4052 7.34694L21.9345 6.50092C21.506 5.78873 20.9946 5.12359 20.4122 4.52012L19.1182 5.6707ZM9.84371 2.92398C11.2632 2.61419 12.7372 2.61496 14.1563 2.92623L14.5504 1.27707C12.8727 0.90879 11.129 0.907633 9.45081 1.27368L9.84371 2.92398ZM10.5295 4.1851V2.09827H8.76498V4.1851H10.5295ZM6.56046 5.40562L4.67709 4.36333L3.79482 5.82862L5.67701 6.87091L6.56046 5.40562ZM3.32544 13.2205L1.44207 14.2639L2.32435 15.7292L4.20772 14.687L3.32544 13.2205ZM4.20772 9.31307L2.32553 8.27191L1.44325 9.73834L3.32544 10.7795L4.20772 9.31307ZM10.5307 21.8984V19.8149H8.76616V21.8984H10.5307ZM5.67818 17.1291L3.79482 18.1714L4.67709 19.6378L6.55929 18.5944L5.67701 17.128L5.67818 17.1291ZM20.2075 18.1714L18.3242 17.1291L17.4419 18.5944L19.3241 19.6367L20.2075 18.1714ZM15.2362 21.9006V19.8149H13.4716V21.9018L15.2362 21.9006ZM21.678 8.27078L19.7946 9.31307L20.6769 10.7795L22.5591 9.73608L21.678 8.27078ZM22.5579 14.2628L20.6769 13.2205L19.7946 14.687L21.6768 15.7281L22.5591 14.2617L22.5579 14.2628ZM15.2362 4.1851V2.10165H13.4716V4.1851H15.2362ZM19.3253 4.36333L17.4419 5.40562L18.3242 6.87204L20.2075 5.82862L19.3253 4.36333ZM13.4716 4.1851C13.4716 6.57312 16.1679 8.06661 18.3242 6.87204L17.4419 5.40562C17.2184 5.52935 16.9649 5.5945 16.7068 5.59452C16.4487 5.59455 16.1952 5.52945 15.9717 5.40577C15.7482 5.28208 15.5625 5.10417 15.4334 4.8899C15.3043 4.67563 15.2363 4.43256 15.2362 4.1851H13.4716ZM19.7946 9.31307C17.6383 10.5076 17.6383 13.4924 19.7946 14.687L20.6769 13.2205C20.4534 13.0968 20.2678 12.9188 20.1387 12.7044C20.0097 12.4901 19.9417 12.2469 19.9417 11.9994C19.9417 11.752 20.0097 11.5088 20.1387 11.2945C20.2678 11.0801 20.4534 10.9021 20.6769 10.7784L19.7946 9.31307ZM18.3242 17.1291C16.1679 15.9345 13.4716 17.4269 13.4716 19.8149H15.2362C15.2363 19.5675 15.3043 19.3244 15.4334 19.1101C15.5625 18.8959 15.7482 18.7179 15.9717 18.5943C16.1952 18.4706 16.4487 18.4055 16.7068 18.4055C16.9649 18.4055 17.2184 18.4707 17.4419 18.5944L18.3242 17.128V17.1291ZM10.5307 19.8149C10.5307 17.4269 7.83447 15.9345 5.67818 17.1291L6.55929 18.5944C6.78278 18.4707 7.03747 18.4055 7.29554 18.4055C7.55361 18.4055 7.80714 18.4706 8.03066 18.5943C8.25418 18.7179 8.43981 18.8959 8.56892 19.1101C8.69802 19.3244 8.76605 19.5675 8.76616 19.8149H10.5307ZM4.20772 14.687C6.36401 13.4924 6.36401 10.5076 4.20772 9.31307L3.32544 10.7795C3.54896 10.9033 3.73458 11.0813 3.86362 11.2956C3.99267 11.5099 4.06061 11.7531 4.06061 12.0006C4.06061 12.2481 3.99267 12.4912 3.86362 12.7056C3.73458 12.9199 3.54896 13.0979 3.32544 13.2217L4.20772 14.687ZM8.76616 4.1851C8.76605 4.43256 8.69802 4.67563 8.56892 4.8899C8.43981 5.10417 8.25418 5.28208 8.03066 5.40577C7.80714 5.52945 7.55361 5.59455 7.29554 5.59452C7.03747 5.5945 6.78396 5.52935 6.56046 5.40562L5.67818 6.87204C7.83447 8.06548 10.5307 6.57312 10.5307 4.1851H8.76616Z" fill="black"/>
</svg>
