<svg width="24" height="24" viewBox="0 0 24 24" fill="none" xmlns="http://www.w3.org/2000/svg">
<path d="M20.0693 10.4322L5.97482 2.2707C5.67924 2.10012 5.34115 2.00683 4.99504 2.00036C4.64893 1.99389 4.30721 2.07448 4.00475 2.23388C3.70229 2.39329 3.44992 2.62582 3.2734 2.90772C3.09689 3.18963 3.00254 3.51083 3 3.83854V20.1615C3.00254 20.4892 3.09689 20.8104 3.2734 21.0923C3.44992 21.3742 3.70229 21.6067 4.00475 21.7661C4.30721 21.9255 4.64893 22.0061 4.99504 21.9996C5.34115 21.9932 5.67924 21.8999 5.97482 21.7293L20.0693 13.5678C20.3535 13.4041 20.5884 13.1738 20.7514 12.8992C20.9144 12.6246 21 12.315 21 12C21 11.685 20.9144 11.3754 20.7514 11.1008C20.5884 10.8262 20.3535 10.5959 20.0693 10.4322ZM5.34777 19.4873V4.51272L18.2762 12L5.34777 19.4873Z" fill="black"/>
</svg>
