<svg width="24" height="24" viewBox="0 0 24 24" fill="none" xmlns="http://www.w3.org/2000/svg">
<path d="M20.1444 18.509C20.6403 17.6681 20.9192 16.6853 20.8572 15.6042C20.7229 13.2563 18.9564 11.2688 16.756 11.0176C16.1045 10.9375 15.4444 11.004 14.819 11.2127C14.1936 11.4215 13.6171 11.7677 13.1272 12.2288C12.6374 12.6898 12.2455 13.2552 11.9771 13.8877C11.7087 14.5203 11.5699 15.2057 11.5699 15.899C11.5699 18.6182 13.6464 20.8132 16.2084 20.8132C17.1175 20.8132 17.9646 20.5293 18.6775 20.0488L21.1672 22.6806C21.5701 23.1065 22.2312 23.1065 22.6341 22.6806C23.037 22.2547 23.037 21.5558 22.6341 21.1299L20.1444 18.509ZM16.2188 18.6291C15.5338 18.6291 14.8769 18.3415 14.3925 17.8295C13.9082 17.3175 13.6361 16.6231 13.6361 15.899C13.6361 15.1749 13.9082 14.4805 14.3925 13.9685C14.8769 13.4565 15.5338 13.1689 16.2188 13.1689C16.9037 13.1689 17.5606 13.4565 18.045 13.9685C18.5293 14.4805 18.8014 15.1749 18.8014 15.899C18.8014 16.6231 18.5293 17.3175 18.045 17.8295C17.5606 18.3415 16.9037 18.6291 16.2188 18.6291ZM15.8469 9.34677C15.0824 9.36861 14.3489 9.54334 13.6774 9.83819L13.1092 8.9318L9.92737 14.4029C9.84235 14.5495 9.72581 14.6727 9.58723 14.7626C9.44865 14.8526 9.29195 14.9067 9.12986 14.9205C8.96777 14.9343 8.80488 14.9075 8.65445 14.8423C8.50401 14.777 8.37028 14.6751 8.26412 14.5449L6.07402 11.8475L2.91283 17.1985C2.59258 17.7336 1.91075 17.8756 1.42521 17.5043C0.991318 17.1658 0.86735 16.5324 1.15661 16.041L5.06161 9.43414C5.43352 8.81167 6.2703 8.74615 6.72485 9.30309L8.90463 11.9895L12.1898 6.34366C12.2801 6.18763 12.4062 6.05821 12.5564 5.96736C12.7066 5.87651 12.876 5.82716 13.0491 5.8239C13.2221 5.82063 13.3931 5.86355 13.5463 5.94867C13.6994 6.0338 13.8298 6.15838 13.9253 6.3109L15.8469 9.34677ZM18.5225 9.89279C17.8613 9.58702 17.1485 9.40137 16.4047 9.35769L21.0948 1.50593C21.4151 0.970828 22.0969 0.839783 22.5721 1.21108C23.0163 1.54961 23.13 2.19391 22.8407 2.67441L18.5225 9.89279Z" fill="black"/>
</svg>
