<svg width="24" height="24" viewBox="0 0 24 24" fill="none" xmlns="http://www.w3.org/2000/svg">
<path d="M20.701 15.861H15.718C15.4263 15.861 15.1465 15.9769 14.9403 16.1831C14.734 16.3894 14.618 16.6693 14.618 16.961C14.618 17.2527 14.734 17.5326 14.9403 17.7388C15.1465 17.9451 15.4263 18.061 15.718 18.061H18.358C17.1447 19.329 15.5799 20.2053 13.8647 20.5771C12.1496 20.949 10.3624 20.7996 8.73275 20.148C7.10319 19.4963 5.70567 18.3724 4.71976 16.9205C3.73385 15.4686 3.20459 13.755 3.2 12C3.2 11.7083 3.08411 11.4285 2.87782 11.2222C2.67153 11.0159 2.39174 10.9 2.1 10.9C1.80827 10.9 1.52847 11.0159 1.32218 11.2222C1.11589 11.4285 1 11.7083 1 12C1.00582 14.1481 1.64045 16.2475 2.82556 18.0391C4.01069 19.8306 5.69444 21.236 7.66903 22.0818C9.64365 22.9275 11.8226 23.1766 13.9371 22.7983C16.0517 22.42 18.0092 21.4309 19.568 19.953V21.9C19.568 22.1917 19.684 22.4715 19.8903 22.6778C20.0965 22.8841 20.3763 23 20.668 23C20.9597 23 21.2396 22.8841 21.4459 22.6778C21.6522 22.4715 21.7681 22.1917 21.7681 21.9V16.95C21.7653 16.6658 21.6527 16.3937 21.4538 16.1907C21.2549 15.9877 20.9851 15.8695 20.701 15.861ZM12 1C9.18005 1.00804 6.47084 2.0988 4.43201 4.047V2.1C4.43201 1.80826 4.31611 1.52847 4.10982 1.32218C3.90353 1.1159 3.62374 1 3.332 1C3.04026 1 2.76048 1.1159 2.55418 1.32218C2.34789 1.52847 2.232 1.80826 2.232 2.1V7.05C2.232 7.34174 2.34789 7.62152 2.55418 7.82782C2.76048 8.0341 3.04026 8.15 3.332 8.15H8.28197C8.57379 8.15 8.85353 8.0341 9.05983 7.82782C9.26613 7.62152 9.38201 7.34174 9.38201 7.05C9.38201 6.75826 9.26613 6.47847 9.05983 6.27218C8.85353 6.06589 8.57379 5.95 8.28197 5.95H5.64201C6.85472 4.68266 8.4185 3.80665 10.1326 3.43442C11.8468 3.06219 13.6331 3.21072 15.2621 3.86095C16.8913 4.51118 18.2889 5.63343 19.2757 7.08366C20.2624 8.53385 20.7932 10.2459 20.8 12C20.8 12.2917 20.9159 12.5715 21.1222 12.7778C21.3285 12.9841 21.6083 13.1 21.9001 13.1C22.1918 13.1 22.4715 12.9841 22.6778 12.7778C22.8841 12.5715 23 12.2917 23 12C23 10.5554 22.7155 9.12502 22.1627 7.79048C21.6099 6.4559 20.7997 5.24327 19.7783 4.22183C18.7568 3.20038 17.5441 2.39013 16.2095 1.83732C14.875 1.28453 13.4446 1 12 1Z" fill="black"/>
</svg>
