<svg width="24" height="24" viewBox="0 0 24 24" fill="none" xmlns="http://www.w3.org/2000/svg">
<g clip-path="url(#clip0_1566_569)">
<path d="M9 6.5V1.66C9 1.48496 8.93679 1.31708 8.82426 1.19331C8.71174 1.06954 8.55913 1 8.4 1H1.6C1.44087 1 1.28826 1.06954 1.17574 1.19331C1.06321 1.31708 1 1.48496 1 1.66V22.34C1 22.515 1.06321 22.6829 1.17574 22.8067C1.28826 22.9305 1.44087 23 1.6 23H8.4C8.55913 23 8.71174 22.9305 8.82426 22.8067C8.93679 22.6829 9 22.515 9 22.34V17.5M9 6.5H6M9 6.5V12M9 17.5V12M9 17.5H6M9 12H6" stroke="black" stroke-width="2" stroke-linecap="round" stroke-linejoin="round"/>
<path d="M14 11.5H18.5M18.5 11.5H23M18.5 11.5V16M18.5 11.5V7" stroke="black" stroke-width="2" stroke-linecap="round" stroke-linejoin="round"/>
</g>
<defs>
<clipPath id="clip0_1566_569">
<rect width="24" height="24" fill="white"/>
</clipPath>
</defs>
</svg>
