<svg width="24" height="24" viewBox="0 0 24 24" fill="none" xmlns="http://www.w3.org/2000/svg">
<path fill-rule="evenodd" clip-rule="evenodd" d="M10.9399 7.94011C11.2212 7.65921 11.6024 7.50143 11.9999 7.50143C12.3974 7.50143 12.7787 7.65921 13.0599 7.94011L18.7179 13.5961C18.9992 13.8775 19.1571 14.2591 19.157 14.657C19.1569 15.0548 18.9988 15.4363 18.7174 15.7176C18.436 15.9989 18.0544 16.1568 17.6566 16.1567C17.2587 16.1566 16.8772 15.9985 16.5959 15.7171L11.9999 11.1211L7.40391 15.7171C7.12114 15.9905 6.7423 16.1419 6.34901 16.1386C5.95571 16.1354 5.57941 15.9778 5.30117 15.6998C5.02292 15.4219 4.86499 15.0457 4.86139 14.6524C4.85779 14.2591 5.0088 13.8801 5.28191 13.5971L10.9389 7.93911L10.9399 7.94011Z" fill="black"/>
</svg>
