<svg width="24" height="24" viewBox="0 0 24 24" fill="none" xmlns="http://www.w3.org/2000/svg">
<g clip-path="url(#clip0_1569_605)">
<path fill-rule="evenodd" clip-rule="evenodd" d="M16.4444 14.2007C17.8761 14.2008 19.2524 14.7481 20.2864 15.7283C21.3204 16.7086 21.9323 18.0463 21.9944 19.4623L22 19.701V21.9012C21.9997 22.1815 21.8912 22.4512 21.6968 22.6551C21.5024 22.859 21.2367 22.9817 20.954 22.9981C20.6713 23.0145 20.3929 22.9235 20.1757 22.7435C19.9586 22.5636 19.819 22.3083 19.7856 22.0299L19.7778 21.9012V19.701C19.7778 18.8593 19.453 18.0493 18.8697 17.4368C18.2864 16.8244 17.4888 16.4557 16.64 16.4064L16.4444 16.4009H7.55556C6.70532 16.4008 5.88721 16.7224 5.2686 17.2999C4.64999 17.8774 4.27766 18.6671 4.22778 19.5074L4.22222 19.701V21.9012C4.22191 22.1815 4.11347 22.4512 3.91906 22.6551C3.72465 22.859 3.45894 22.9817 3.17623 22.9981C2.89352 23.0145 2.61513 22.9235 2.39796 22.7435C2.18079 22.5636 2.04123 22.3083 2.00778 22.0299L2 21.9012V19.701C2.00008 18.2836 2.55282 16.921 3.54296 15.8973C4.53309 14.8735 5.88417 14.2677 7.31444 14.2062L7.55556 14.2007H16.4444ZM12 1C13.4734 1 14.8865 1.57949 15.9284 2.611C16.9702 3.64251 17.5556 5.04153 17.5556 6.5003C17.5556 7.95908 16.9702 9.3581 15.9284 10.3896C14.8865 11.4211 13.4734 12.0006 12 12.0006C10.5266 12.0006 9.1135 11.4211 8.07163 10.3896C7.02976 9.3581 6.44444 7.95908 6.44444 6.5003C6.44444 5.04153 7.02976 3.64251 8.07163 2.611C9.1135 1.57949 10.5266 1 12 1ZM12 3.20012C11.5623 3.20012 11.1288 3.28548 10.7244 3.45133C10.32 3.61718 9.95251 3.86027 9.64298 4.16672C9.33345 4.47317 9.08792 4.83698 8.9204 5.23738C8.75289 5.63778 8.66667 6.06692 8.66667 6.5003C8.66667 6.93369 8.75289 7.36283 8.9204 7.76323C9.08792 8.16363 9.33345 8.52744 9.64298 8.83389C9.95251 9.14034 10.32 9.38343 10.7244 9.54928C11.1288 9.71513 11.5623 9.80049 12 9.80049C12.8841 9.80049 13.7319 9.45279 14.357 8.83389C14.9821 8.21498 15.3333 7.37557 15.3333 6.5003C15.3333 5.62504 14.9821 4.78563 14.357 4.16672C13.7319 3.54782 12.8841 3.20012 12 3.20012Z" fill="black"/>
</g>
<defs>
<clipPath id="clip0_1569_605">
<rect width="24" height="24" fill="white"/>
</clipPath>
</defs>
</svg>
