<svg width="41" height="41" viewBox="0 0 41 41" fill="none" xmlns="http://www.w3.org/2000/svg">
<path opacity="0.1" fill-rule="evenodd" clip-rule="evenodd" d="M0.73584 20.8016C0.73584 9.84099 9.62114 0.955688 20.5817 0.955688C31.5423 0.955688 40.4276 9.84099 40.4276 20.8016C40.4276 31.7621 31.5423 40.6474 20.5817 40.6474C9.62114 40.6474 0.73584 31.7621 0.73584 20.8016Z" fill="white"/>
<path fill-rule="evenodd" clip-rule="evenodd" d="M19.9872 17.0866L20.0289 17.7733L19.3348 17.6892C16.8083 17.3669 14.6011 16.2738 12.7271 14.4379L11.8109 13.5269L11.5749 14.1996C11.0751 15.6992 11.3944 17.2828 12.4356 18.3479C12.9908 18.9365 12.8659 19.0206 11.9081 18.6703C11.5749 18.5581 11.2834 18.474 11.2556 18.5161C11.1584 18.6142 11.4916 19.8895 11.7554 20.394C12.1163 21.0948 12.852 21.7815 13.6572 22.1879L14.3374 22.5102L13.5322 22.5243C12.7548 22.5243 12.7271 22.5383 12.8104 22.8326C13.088 23.7435 14.1847 24.7105 15.4063 25.131L16.2669 25.4253L15.5173 25.8737C14.4068 26.5184 13.1019 26.8828 11.797 26.9108C11.1723 26.9248 10.6587 26.9809 10.6587 27.0229C10.6587 27.1631 12.3523 27.9479 13.3379 28.2562C16.2947 29.1671 19.8068 28.7747 22.4443 27.2191C24.3184 26.112 26.1924 23.9117 27.067 21.7815C27.5389 20.6463 28.0109 18.5722 28.0109 17.5771C28.0109 16.9325 28.0526 16.8484 28.8299 16.0776C29.288 15.6291 29.7184 15.1386 29.8017 14.9984C29.9405 14.7322 29.9266 14.7322 29.2186 14.9704C28.0387 15.3909 27.8721 15.3348 28.4551 14.7041C28.8855 14.2557 29.3991 13.4428 29.3991 13.2046C29.3991 13.1625 29.1909 13.2326 28.9549 13.3587C28.705 13.4989 28.1497 13.7091 27.7333 13.8352L26.9837 14.0735L26.3035 13.611C25.9286 13.3587 25.4011 13.0785 25.1235 12.9944C24.4155 12.7982 23.3328 12.8262 22.6942 13.0504C20.959 13.6811 19.8623 15.3068 19.9872 17.0866Z" fill="white"/>
</svg>
