<svg width="24" height="24" viewBox="0 0 24 24" fill="none" xmlns="http://www.w3.org/2000/svg">
<g clip-path="url(#clip0_1594_106)">
<path d="M2 12.0833V3.83333C2 3.3471 2.19156 2.88079 2.53253 2.53697C2.87351 2.19315 3.33597 2 3.81818 2H14.7273C14.8467 1.99991 14.965 2.02354 15.0753 2.06954C15.1857 2.11555 15.286 2.18303 15.3705 2.26813L21.7341 8.68479C21.8185 8.76998 21.8854 8.87111 21.931 8.98239C21.9767 9.09367 22.0001 9.21292 22 9.33333V12.0833C22 12.3264 21.9042 12.5596 21.7337 12.7315C21.5632 12.9034 21.332 13 21.0909 13C20.8498 13 20.6186 12.9034 20.4481 12.7315C20.2776 12.5596 20.1818 12.3264 20.1818 12.0833V10.25H14.7273C14.4862 10.25 14.2549 10.1534 14.0844 9.98151C13.914 9.80961 13.8182 9.57645 13.8182 9.33333V3.83333H3.81818V12.0833C3.81818 12.3264 3.7224 12.5596 3.55192 12.7315C3.38143 12.9034 3.1502 13 2.90909 13C2.66799 13 2.43675 12.9034 2.26627 12.7315C2.09578 12.5596 2 12.3264 2 12.0833ZM15.6364 8.41667H18.8966L15.6364 5.12927V5.36111V8.41667Z" fill="black"/>
<path d="M1.621 22.018C1.441 22.018 1.309 22.006 1.225 21.982C1.147 21.952 1.108 21.91 1.108 21.856C1.108 21.802 1.135 21.733 1.189 21.649L3.106 18.715L1.405 16.051C1.345 15.961 1.315 15.892 1.315 15.844C1.315 15.796 1.357 15.757 1.441 15.727C1.525 15.697 1.657 15.682 1.837 15.682H2.125C2.245 15.682 2.344 15.694 2.422 15.718C2.506 15.736 2.569 15.778 2.611 15.844L3.781 17.689L5.005 15.835C5.041 15.769 5.101 15.727 5.185 15.709C5.275 15.691 5.377 15.682 5.491 15.682H5.743C5.917 15.682 6.046 15.697 6.13 15.727C6.214 15.751 6.256 15.79 6.256 15.844C6.256 15.868 6.247 15.898 6.229 15.934C6.217 15.97 6.199 16.009 6.175 16.051L4.438 18.715L6.319 21.649C6.367 21.733 6.391 21.802 6.391 21.856C6.391 21.904 6.352 21.943 6.274 21.973C6.196 22.003 6.064 22.018 5.878 22.018H5.599C5.479 22.018 5.377 22.009 5.293 21.991C5.215 21.967 5.155 21.922 5.113 21.856L3.754 19.741L2.368 21.865C2.32 21.931 2.254 21.973 2.17 21.991C2.086 22.009 1.987 22.018 1.873 22.018H1.621ZM8.03195 22C7.80995 22 7.69895 21.889 7.69895 21.667V15.943C7.69895 15.769 7.85795 15.682 8.17595 15.682H8.40095C8.71895 15.682 8.87795 15.769 8.87795 15.943V20.992H11.011C11.167 20.992 11.245 21.121 11.245 21.379V21.613C11.245 21.871 11.167 22 11.011 22H8.03195ZM14.0383 22.063C13.6063 22.063 13.2343 22.018 12.9223 21.928C12.6163 21.838 12.3853 21.736 12.2293 21.622C12.0793 21.52 12.0043 21.418 12.0043 21.316C12.0043 21.238 12.0313 21.145 12.0853 21.037C12.1453 20.929 12.2143 20.836 12.2923 20.758C12.3703 20.674 12.4333 20.632 12.4813 20.632C12.5053 20.632 12.5353 20.641 12.5713 20.659C12.6073 20.677 12.6523 20.701 12.7063 20.731C12.8263 20.791 12.9823 20.86 13.1743 20.938C13.3723 21.016 13.6063 21.055 13.8763 21.055C14.0443 21.055 14.2003 21.031 14.3443 20.983C14.4943 20.929 14.6143 20.845 14.7043 20.731C14.7943 20.611 14.8393 20.461 14.8393 20.281C14.8393 20.077 14.7703 19.915 14.6323 19.795C14.5003 19.675 14.3293 19.57 14.1193 19.48C13.9093 19.39 13.6903 19.294 13.4623 19.192C13.2943 19.12 13.1293 19.039 12.9673 18.949C12.8113 18.853 12.6703 18.739 12.5443 18.607C12.4183 18.469 12.3163 18.304 12.2383 18.112C12.1663 17.914 12.1303 17.677 12.1303 17.401C12.1303 17.005 12.2263 16.678 12.4183 16.42C12.6163 16.156 12.8743 15.961 13.1923 15.835C13.5103 15.703 13.8523 15.637 14.2183 15.637C14.3983 15.637 14.5753 15.652 14.7493 15.682C14.9233 15.706 15.0823 15.745 15.2263 15.799C15.3703 15.847 15.4903 15.904 15.5863 15.97C15.7123 16.054 15.7753 16.144 15.7753 16.24C15.7753 16.306 15.7513 16.393 15.7033 16.501C15.6613 16.609 15.6073 16.705 15.5413 16.789C15.4753 16.873 15.4123 16.915 15.3523 16.915C15.3223 16.915 15.2833 16.903 15.2353 16.879C15.1933 16.855 15.1333 16.828 15.0553 16.798C14.9713 16.762 14.8663 16.729 14.7403 16.699C14.6203 16.663 14.4703 16.645 14.2903 16.645C14.0623 16.645 13.8763 16.678 13.7323 16.744C13.5943 16.804 13.4953 16.885 13.4353 16.987C13.3753 17.089 13.3453 17.203 13.3453 17.329C13.3453 17.509 13.3933 17.656 13.4893 17.77C13.5853 17.884 13.7113 17.98 13.8673 18.058C14.0293 18.13 14.2063 18.202 14.3983 18.274C14.5843 18.352 14.7733 18.439 14.9653 18.535C15.1633 18.625 15.3433 18.739 15.5053 18.877C15.6733 19.015 15.8053 19.189 15.9013 19.399C16.0033 19.609 16.0543 19.867 16.0543 20.173C16.0543 20.503 16.0003 20.788 15.8923 21.028C15.7843 21.268 15.6343 21.466 15.4423 21.622C15.2503 21.772 15.0343 21.883 14.7943 21.955C14.5543 22.027 14.3023 22.063 14.0383 22.063ZM17.3323 22.018C17.1523 22.018 17.0203 22.006 16.9363 21.982C16.8583 21.952 16.8193 21.91 16.8193 21.856C16.8193 21.802 16.8463 21.733 16.9003 21.649L18.8173 18.715L17.1163 16.051C17.0563 15.961 17.0263 15.892 17.0263 15.844C17.0263 15.796 17.0683 15.757 17.1523 15.727C17.2363 15.697 17.3683 15.682 17.5483 15.682H17.8363C17.9563 15.682 18.0553 15.694 18.1333 15.718C18.2173 15.736 18.2803 15.778 18.3223 15.844L19.4923 17.689L20.7163 15.835C20.7523 15.769 20.8123 15.727 20.8963 15.709C20.9863 15.691 21.0883 15.682 21.2023 15.682H21.4543C21.6283 15.682 21.7573 15.697 21.8413 15.727C21.9253 15.751 21.9673 15.79 21.9673 15.844C21.9673 15.868 21.9583 15.898 21.9403 15.934C21.9283 15.97 21.9103 16.009 21.8863 16.051L20.1493 18.715L22.0303 21.649C22.0783 21.733 22.1023 21.802 22.1023 21.856C22.1023 21.904 22.0633 21.943 21.9853 21.973C21.9073 22.003 21.7753 22.018 21.5893 22.018H21.3103C21.1903 22.018 21.0883 22.009 21.0043 21.991C20.9263 21.967 20.8663 21.922 20.8243 21.856L19.4653 19.741L18.0793 21.865C18.0313 21.931 17.9653 21.973 17.8813 21.991C17.7973 22.009 17.6983 22.018 17.5843 22.018H17.3323Z" fill="black"/>
</g>
<defs>
<clipPath id="clip0_1594_106">
<rect width="24" height="24" fill="white"/>
</clipPath>
</defs>
</svg>
