<svg width="40" height="41" viewBox="0 0 40 41" fill="none" xmlns="http://www.w3.org/2000/svg">
<path opacity="0.1" fill-rule="evenodd" clip-rule="evenodd" d="M0.273438 20.8016C0.273438 9.84099 9.15874 0.955688 20.1193 0.955688C31.0799 0.955688 39.9652 9.84099 39.9652 20.8016C39.9652 31.7621 31.0799 40.6474 20.1193 40.6474C9.15874 40.6474 0.273438 31.7621 0.273438 20.8016Z" fill="white"/>
<path fill-rule="evenodd" clip-rule="evenodd" d="M28.3901 13.9791C29.3009 14.2291 30.0183 14.9656 30.2617 15.9008C30.7041 17.5958 30.7041 21.1325 30.7041 21.1325C30.7041 21.1325 30.7041 24.669 30.2617 26.3642C30.0183 27.2994 29.3009 28.0359 28.3901 28.2859C26.7394 28.7401 20.1196 28.7401 20.1196 28.7401C20.1196 28.7401 13.4999 28.7401 11.8491 28.2859C10.9382 28.0359 10.2209 27.2994 9.97742 26.3642C9.53516 24.669 9.53516 21.1325 9.53516 21.1325C9.53516 21.1325 9.53516 17.5958 9.97742 15.9008C10.2209 14.9656 10.9382 14.2291 11.8491 13.9791C13.4999 13.5249 20.1196 13.5249 20.1196 13.5249C20.1196 13.5249 26.7394 13.5249 28.3901 13.9791ZM18.1351 18.1555V24.7708L23.4273 21.4633L18.1351 18.1555Z" fill="white"/>
</svg>
